<svg xmlns="http://www.w3.org/2000/svg" viewBox="0 0 40 40"><defs><style>.cls-1{fill:#87a965;}</style></defs><title>huqiangban</title><g id="图层_2" data-name="图层 2"><g id="图层_1-2" data-name="图层 1"><path class="cls-1" d="M31.09,15.35v-.12a.62.62,0,0,1,.55-.67h5.08a2.47,2.47,0,0,0,1.78-.75A2.68,2.68,0,0,0,39.22,12V2.6A2.68,2.68,0,0,0,38.5.75,2.42,2.42,0,0,0,36.72,0h-26A2.44,2.44,0,0,0,8.89.75,2.59,2.59,0,0,0,8.17,2.6v9.47a.68.68,0,0,1,0,.28.59.59,0,0,1-.54.39H2.65a2.76,2.76,0,0,0-1.95.88A2.54,2.54,0,0,0,0,15.35v9.33a2.52,2.52,0,0,0,.84,1.85,2.72,2.72,0,0,0,1.83.75H8.29a.59.59,0,0,1,.32.09.64.64,0,0,1,.27.63v9.4a2.52,2.52,0,0,0,.79,1.8,2.84,2.84,0,0,0,2,.8h26.1A2.31,2.31,0,0,0,40,37.4V28.05a2.58,2.58,0,0,0-.56-1.88,2.09,2.09,0,0,0-1.63-.71H31.68a.59.59,0,0,1-.59-.61v-9.5ZM9.91,2.6a.72.72,0,0,1,.76-.78H36.76a.72.72,0,0,1,.76.78V7a.62.62,0,0,1-.59.64H21.2a.86.86,0,0,0-.88.92.86.86,0,0,0,.88.92H36.93a.61.61,0,0,1,.59.63V12a.72.72,0,0,1-.76.78H10.67A.72.72,0,0,1,9.91,12ZM2.5,25.46a.72.72,0,0,1-.76-.78V20.29a.62.62,0,0,1,.59-.64h7.75a.92.92,0,0,0,0-1.84H2.33a.61.61,0,0,1-.59-.63V15.32a.72.72,0,0,1,.76-.78H28.57a.72.72,0,0,1,.76.78v9.33a.73.73,0,0,1-.76.79ZM38.32,29a.62.62,0,0,1-.59.64H22a.92.92,0,0,0,0,1.84H37.73a.61.61,0,0,1,.59.63v5.33a.77.77,0,0,1-.19.53.74.74,0,0,1-.57.23H11.48a.72.72,0,0,1-.75-.78V34.71a.61.61,0,0,1,.58-.63h7.76a.92.92,0,0,0,0-1.84H11.31a.61.61,0,0,1-.58-.64V28.06a.72.72,0,0,1,.75-.78H37.56a.72.72,0,0,1,.76.78Z"/><path class="cls-1" d="M21.37,19.08H18.61a.92.92,0,0,0,0,1.84h2.78a.85.85,0,0,0,.88-.92A.86.86,0,0,0,21.37,19.08Z"/></g></g></svg>