<?xml version="1.0" encoding="utf-8"?>
<!-- Generator: Adobe Illustrator 23.0.0, SVG Export Plug-In . SVG Version: 6.00 Build 0)  -->
<svg version="1.1" id="图层_1" xmlns="http://www.w3.org/2000/svg" xmlns:xlink="http://www.w3.org/1999/xlink" x="0px" y="0px"
	 viewBox="0 0 84 22" style="enable-background:new 0 0 84 22;" xml:space="preserve">
<style type="text/css">
	.st0{fill:#323232;}
	.st1{fill:#87B828;}
</style>
<g>
	<path class="st0" d="M82.5,10.9c0.4,0,0.6-0.3,0.6-0.7c0-0.4-0.3-0.7-0.6-0.7h-2.8V8.1h1.6c1.2,0,2.1-1,2.1-2.2s-1-2.2-2.1-2.2
		h-6.4c-1.2,0-2.2,1-2.2,2.3v6.1c0,1.8-0.2,3.5-0.5,5.2c-0.1,0.4,0.1,0.7,0.5,0.8c0,0,0.1,0,0.1,0c0.3,0,0.6-0.2,0.6-0.5
		c0.4-1.8,0.6-3.7,0.6-5.5V6.1c0-0.5,0.4-1,1-1h6.4c0.5,0,0.9,0.4,0.9,0.9s-0.4,0.9-0.9,0.9H75c-0.4,0-0.6,0.3-0.6,0.7
		c0,0.4,0.3,0.7,0.6,0.7h3.3v1.4h-2.8c-0.4,0-0.6,0.3-0.6,0.7c0,0.4,0.3,0.7,0.6,0.7h2.8v1.4h-1.5c-1.1,0-2,0.9-2,2v1.8
		c0,1.1,0.9,2,2,2h4.3c1.1,0,2-0.9,2-2v-1.8c0-1.1-0.9-2-2-2h-1.5v-1.4H82.5z M81.8,14.3v1.8c0,0.4-0.3,0.7-0.7,0.7h-4.3
		c-0.4,0-0.7-0.3-0.7-0.7v-1.8c0-0.4,0.3-0.7,0.7-0.7h4.3C81.5,13.6,81.8,13.9,81.8,14.3z"/>
	<g>
		<path class="st0" d="M59.6,5.2h8.7c0.4,0,0.6-0.3,0.6-0.7s-0.3-0.7-0.6-0.7h-8.7c-0.4,0-0.6,0.3-0.6,0.7S59.3,5.2,59.6,5.2z"/>
		<path class="st0" d="M69,8.5h-7.5c0,0,0,0,0,0H59c-0.4,0-0.6,0.3-0.6,0.7s0.3,0.7,0.6,0.7h1.8l-1.4,6.4c-0.1,0.5,0,0.9,0.3,1.3
			c0.3,0.4,0.7,0.6,1.2,0.6h6.6c0.5,0,0.9-0.2,1.3-0.6c0.3-0.4,0.4-0.9,0.3-1.4l-0.7-3.3c-0.1-0.4-0.4-0.6-0.8-0.5
			c-0.3,0.1-0.6,0.4-0.5,0.8l0.7,3.3c0,0.1,0,0.2-0.1,0.3c0,0-0.1,0.1-0.3,0.1h-6.6c-0.1,0-0.2-0.1-0.2-0.1c0,0-0.1-0.1,0-0.2
			L62,9.8h7c0.4,0,0.6-0.3,0.6-0.7S69.4,8.5,69,8.5z"/>
	</g>
	<g>
		<path class="st0" d="M55.3,4.6h-2.1V4.1c0-0.4-0.3-0.7-0.6-0.7c-0.4,0-0.6,0.3-0.6,0.7v0.5h-3.3V4.1c0-0.4-0.3-0.7-0.6-0.7
			c-0.4,0-0.6,0.3-0.6,0.7v0.5h-2.1c-0.4,0-0.6,0.3-0.6,0.7c0,0.4,0.3,0.7,0.6,0.7h2.1c0,0.4,0.3,0.6,0.6,0.6c0.4,0,0.6-0.3,0.6-0.6
			h3.3c0,0.4,0.3,0.6,0.6,0.6c0.4,0,0.6-0.3,0.6-0.6h2.1c0.4,0,0.6-0.3,0.6-0.7C55.9,4.9,55.6,4.6,55.3,4.6z"/>
		<path class="st0" d="M54.9,8.6c0.4,0,0.6-0.3,0.6-0.7s-0.3-0.7-0.6-0.7h-9c-0.4,0-0.6,0.3-0.6,0.7s0.3,0.7,0.6,0.7h6v8.2
			c0,0.3-0.2,0.5-0.4,0.5H50c-0.4,0-0.6,0.3-0.6,0.7s0.3,0.7,0.6,0.7h1.4c1,0,1.7-0.8,1.7-1.8v-4.1h1.6c0.4,0,0.6-0.3,0.6-0.7
			s-0.3-0.7-0.6-0.7h-1.6V8.6H54.9z"/>
		<path class="st0" d="M51.1,12.9c0.2-0.3,0.2-0.7,0-1c-0.2-0.3-0.5-0.5-0.9-0.5H47c0,0-0.1,0-0.1-0.1v-1c0-0.4-0.3-0.7-0.6-0.7
			c-0.4,0-0.6,0.3-0.6,0.7v1c0,0.8,0.6,1.4,1.4,1.4h2.8c-1.1,1.7-2.5,3.2-4.3,4.2l-0.6,0.4c-0.3,0.2-0.4,0.6-0.2,0.9
			c0.1,0.2,0.3,0.3,0.6,0.3c0.1,0,0.2,0,0.3-0.1l0.6-0.4C48.2,16.7,49.9,15,51.1,12.9z"/>
	</g>
	<g>
		<path class="st0" d="M31.8,5.1h9.4c0.4,0,0.6-0.3,0.6-0.7c0-0.4-0.3-0.7-0.6-0.7h-9.4c-0.4,0-0.6,0.3-0.6,0.7
			C31.2,4.8,31.5,5.1,31.8,5.1z"/>
		<path class="st0" d="M41.5,16.9H31.5c-0.4,0-0.6,0.3-0.6,0.7c0,0.4,0.3,0.7,0.6,0.7h10.1c0.4,0,0.6-0.3,0.6-0.7
			C42.2,17.2,41.9,16.9,41.5,16.9z"/>
		<path class="st0" d="M41,10.8V8.1c0-1.1-0.9-2-2-2h-5.3c-1.1,0-2,0.9-2,2v2.7c0,1.1,0.9,2,2,2H39C40.1,12.8,41,11.9,41,10.8z
			 M39.7,10.8c0,0.4-0.3,0.7-0.7,0.7h-5.3c-0.4,0-0.7-0.3-0.7-0.7V8.1c0-0.4,0.3-0.7,0.7-0.7H39c0.4,0,0.7,0.3,0.7,0.7V10.8z"/>
		<path class="st0" d="M33.3,14.3v1.5c0,0.4,0.3,0.7,0.6,0.7c0.4,0,0.6-0.3,0.6-0.7v-1.5c0-0.4-0.3-0.7-0.6-0.7
			C33.6,13.7,33.3,14,33.3,14.3z"/>
		<path class="st0" d="M38.1,14.3v1.5c0,0.4,0.3,0.7,0.6,0.7c0.4,0,0.6-0.3,0.6-0.7v-1.5c0-0.4-0.3-0.7-0.6-0.7
			C38.4,13.7,38.1,14,38.1,14.3z"/>
	</g>
</g>
<path class="st1" d="M19.4,0L19.4,0C18.1,0,17,1,17,2.3v4.3c-1.6-1.2-3.5-1.8-5.7-1.8c-5.3,0-9.6,4.3-9.6,9.6c0,2.8,1.2,5.3,3.1,7
	c2.1,0.5,5.4,1,7.7,0.4c0.3-0.1,0.7-0.2,1-0.4c0.3-0.2,0.6-0.3,0.8-0.5c0,0,0.2-0.2,0.3-0.3c1.4-1.4,1.9-3.7,1.2-5.7
	c-0.1-0.4-0.5-0.8-0.9-1c-0.1,0-0.1,0-0.2,0c0,0,0,0,0,0c0,0,0,0,0,0.1c-0.2,0.5-0.4,0.9-0.6,1.3c-0.4,0.6-0.8,1.1-1.3,1.5
	c-0.8,0.8-1.8,1.4-2.9,1.7c-0.4,0.1-0.7,0.2-1.1,0.2c-0.4,0-0.8,0-1.2-0.1c-0.1,0-0.2-0.1-0.3-0.1c-0.3-0.1-0.6-0.3-0.9-0.6
	c-0.3-0.3-0.5-0.7-0.7-1.1c-0.2-0.4-0.2-0.9-0.2-1.3c0-0.3,0.1-0.7,0.2-1c0.3-1,0.8-1.8,1.5-2.5c0.4-0.4,1-0.8,1.5-1.1
	c1-0.6,2.1-0.9,3.3-0.9c0.4,0,0.8,0.1,1.2,0.2c0.1,0,0.1,0,0.2,0.1c0.6,0.3,1,0.7,1.3,1.3c0.1,0.2,0.1,0.3,0.2,0.5
	c0,0.1,0.1,0.2,0.2,0.3c1.1,0.6,2.7,2.3,2.9,5c0,0.7,0,1.7-0.3,2.7c-0.2,0.6-0.3,0.9-0.3,0.9h0c0.4,0.7,1.2,1.2,2,1.2h0
	c1.3,0,2.3-1,2.3-2.3V2.3C21.7,1,20.7,0,19.4,0z"/>
</svg>
