<svg xmlns="http://www.w3.org/2000/svg" viewBox="0 0 40 40"><defs><style>.cls-1{fill:#87a965;}</style></defs><title>nuantongxitong</title><g id="图层_2" data-name="图层 2"><g id="图层_1-2" data-name="图层 1"><path class="cls-1" d="M12.91,25.89a.5.5,0,0,1,.36.1c1.73.61,2.73,2.94,2.28,5-.19.82-.55,1.63-.82,2.44l-.19.41c-.72,1.82-.63,2.74.64,4.26a2.23,2.23,0,0,1,.18,1.12v.71h-.63c-.09.1-.27.1-.46.1a1,1,0,0,1-.54-.1c-1.28-.81-1.91-2.74-2.09-4.16v-.21A8.81,8.81,0,0,1,12,34.41a16,16,0,0,1,.82-2.33c.91-2.13.82-2.54-.64-4.06a2,2,0,0,1-.27-1.62,1.23,1.23,0,0,1,1-.51Zm5.63-1A.76.76,0,0,1,19,25c1.36.51,2.18,2.24,2.18,4.37v.1A4.84,4.84,0,0,1,21,30a13.87,13.87,0,0,1-.73,2c-.72,1.73-.91,3,.46,4.26.27.2.27.82.27.92a1,1,0,0,1-.18.61,1.73,1.73,0,0,1-1,.3c-.18,0-.27,0-.37-.1a3.54,3.54,0,0,1-1.81-3.25,14.62,14.62,0,0,1,.72-4.06c.73-2,.73-2.23-.63-3.76a1.66,1.66,0,0,1-.18-1.62,1.14,1.14,0,0,1,1-.41Zm-10.9-.2a.31.31,0,0,1,.27.1c1.64.71,2.45,2.74,1.91,4.88-.18.7-.46,1.31-.64,1.92a3.5,3.5,0,0,1-.27.81A3.21,3.21,0,0,0,9.45,36a2,2,0,0,1,.28,1v.4l.09.31H9.55a.51.51,0,0,0-.37.1,1,1,0,0,1-.54.1c-.19,0-.37,0-.46-.1-1.18-.71-1.82-2.44-2-4v-.2a4,4,0,0,1,.37-1c.27-.71.45-1.52.81-2.34.73-1.82.73-2.23-.63-3.55-.28-.2-.28-.61-.28-1a.68.68,0,0,0-.09-.41l-.09-.31.28-.1c.09,0,.27-.1.36-.1a1.7,1.7,0,0,1,.73-.2Zm21.9.3a1.14,1.14,0,0,1,.64.21c.37.2.46,1,.46,1.42a9.6,9.6,0,0,1-.37,1.52c0,.1-.09.31-.09.41h.09c.09-.1.18-.1.18-.2a9.81,9.81,0,0,1,.91-.92,2,2,0,0,1,1.18-.51h.19a1.14,1.14,0,0,1,.54.61,1.51,1.51,0,0,1,.18.92,2.17,2.17,0,0,1-1.09,1c-.36.2-.72.31-1.18.51-.09,0-.18.1-.27.1.09,0,.18.1.27.1a4.82,4.82,0,0,1,1.27.51c.37.2.91.61,1,1a1.59,1.59,0,0,1-.72,1.42h-.28a2.15,2.15,0,0,1-1.09-.41c-.36-.31-.63-.61-1-.92-.09-.09-.18-.2-.27-.2s.09.2.09.41a7.89,7.89,0,0,1,.27,1.42c0,.41,0,1.22-.36,1.52a1.54,1.54,0,0,0-.82-.2,1.18,1.18,0,0,1-.82-.31,1.86,1.86,0,0,1-.18-1.52,5.9,5.9,0,0,1,.37-1.42c0-.1.09-.2.09-.41l-.28.31c-.36.31-.72.71-1.09,1a2.13,2.13,0,0,1-1.18.51h-.09c-.27,0-.45-.3-.54-.51a1.42,1.42,0,0,1-.19-.91,2,2,0,0,1,1.09-1.12,4.92,4.92,0,0,1,1.28-.4c.09,0,.18-.1.27-.1-.09,0-.18-.1-.27-.1a6.18,6.18,0,0,1-1.18-.51,1.89,1.89,0,0,1-1-1.12,1,1,0,0,1,.1-.71c.09-.1.27-.61.63-.61h.18a1.94,1.94,0,0,1,1.09.51c.37.3.73.71,1.1,1l.27.31.09-.1c0-.1-.09-.31-.09-.41a11.42,11.42,0,0,1-.46-1.52c-.09-.41,0-1.22.28-1.42s.45-.21.81-.21Zm5.1-25C38.09,0,40,2.13,40,6.09v11c0,3.85-2,6-5.36,6H28.73l-23.09.11C1.91,23.15,0,21,0,16.85V6.19C0,2.23,1.91.1,5.36,0Zm.27,2.94H5.09c-1.82,0-2.54.82-2.54,2.84V17.46c0,2.14.72,2.95,2.54,2.95h30c1.64,0,2.37-.81,2.37-2.64V5.68c0-1.93-.73-2.74-2.55-2.74Zm-.09,13.3a1.32,1.32,0,0,1-.28.92,1.21,1.21,0,0,1-1,.3H5.73c.09.1,0,.1-.09.1s-.37,0-.46-.1-1-.61-.91-1.12a2.18,2.18,0,0,1,.82-1.21,1.08,1.08,0,0,1,.55-.1H33.45c.37,0,1.37,0,1.37,1.21Zm-1.28-5c.55,0,.91.1,1.1.4a1.26,1.26,0,0,1,.27.82c0,1-.93,1.11-1.36,1.11H6.09l-.36.1a1.41,1.41,0,0,1-.64-.1,1.38,1.38,0,0,1-.73-1A1.7,1.7,0,0,1,5,11.47a.92.92,0,0,1,.73-.2Z"/></g></g></svg>