<svg xmlns="http://www.w3.org/2000/svg" viewBox="0 0 40.5 40.5"><defs><style>.cls-1{fill:none;}.cls-2{fill:#87a965;stroke:#87a965;stroke-miterlimit:10;stroke-width:0.5px;}</style></defs><title>quanwuyingzhuang</title><g id="图层_2" data-name="图层 2"><g id="图层_1-2" data-name="图层 1"><path class="cls-1" d="M31.19,15.61H3.89A2.83,2.83,0,0,1,1,12.83V3.76A2.83,2.83,0,0,1,3.89,1h27.3a2.84,2.84,0,0,1,2.88,2.76v9a2.85,2.85,0,0,1-2.88,2.81Z"/><path class="cls-2" d="M31.2,16.36H3.89A3.6,3.6,0,0,1,.25,12.85V3.76A3.6,3.6,0,0,1,3.89.25H31.2a3.61,3.61,0,0,1,3.64,3.51v9a3.58,3.58,0,0,1-3.6,3.56ZM3.89,1.76a2,2,0,0,0-2.08,2v9a2,2,0,0,0,2.08,2H31.2a2.07,2.07,0,0,0,2.08-2.06v-9a2,2,0,0,0-2.08-2H3.89Z"/><path class="cls-2" d="M37,21.57H23v-1.5H37a1.72,1.72,0,0,0,1.74-1.68V12.13A1.71,1.71,0,0,0,37,10.45H34.07V8.94H37a3.25,3.25,0,0,1,3.3,3.19v6.26A3.24,3.24,0,0,1,37,21.57ZM25.79,8.36H7.15a.75.75,0,1,1,0-1.5H25.79a.75.75,0,1,1,0,1.5Z"/><path class="cls-2" d="M18.64,27.78a.76.76,0,0,1-.78-.75V20.77a.77.77,0,0,1,.78-.75H23a.76.76,0,1,1,0,1.51H19.42v5.52A.77.77,0,0,1,18.64,27.78Z"/><path class="cls-2" d="M22.19,40.25H15a.77.77,0,0,1-.78-.75V27.73A.76.76,0,0,1,15,27h7.16a.76.76,0,0,1,.78.75V39.5a.77.77,0,0,1-.78.75Zm-6.38-1.51h5.6V28.48h-5.6Z"/></g></g></svg>