<svg xmlns="http://www.w3.org/2000/svg" viewBox="0 0 40 41.53"><defs><style>.cls-1{fill:none;}.cls-2,.cls-3{fill:#87a965;stroke:#87a965;stroke-miterlimit:10;}.cls-3{stroke-width:0.5px;}</style></defs><title>quanwudingzhi</title><g id="图层_2" data-name="图层 2"><g id="图层_1-2" data-name="图层 1"><path class="cls-1" d="M1.83,6.85v32a2.67,2.67,0,0,0,2.68,2.65H8.2a4,4,0,0,1-1-2.64V21.53a4.08,4.08,0,0,1,.19-1.16,4,4,0,0,1,3.79-2.84h6.68V4.2H4.51A2.66,2.66,0,0,0,1.83,6.84ZM32.49,4.2H19.17V17.53h16V6.85A2.67,2.67,0,0,0,32.49,4.2Zm-12,20h6.67v1.33H20.5Zm0,10.67h6.67V36.2H20.5Z"/><path class="cls-2" d="M39.5,18.68a3.91,3.91,0,0,0-3.9-3.88V4.4a4.15,4.15,0,0,0-.08-.79,5,5,0,0,0-.16-.51c0-.07,0-.15-.07-.22s-.13-.24-.19-.36a2.91,2.91,0,0,0-.17-.3c0-.05-.07-.08-.1-.13A3.87,3.87,0,0,0,31.7.5H4.4A3.91,3.91,0,0,0,.5,4.4V35.6a4.15,4.15,0,0,0,.08.79,3.5,3.5,0,0,0,.17.55,1.27,1.27,0,0,0,.06.18c.06.14.14.27.21.4s.09.18.15.26a1.58,1.58,0,0,0,.12.15A3.86,3.86,0,0,0,4.4,39.5H35.6a3.88,3.88,0,0,0,3.71-2.77,3.82,3.82,0,0,0,.19-1.13V18.68ZM18.7,1.8h13A2.61,2.61,0,0,1,34.3,4.39V14.8H18.7ZM4.41,38.2A2.61,2.61,0,0,1,1.8,35.61V4.39A2.59,2.59,0,0,1,4.41,1.8h13v13H10.9a3.88,3.88,0,0,0-3.71,2.77A3.94,3.94,0,0,0,7,18.7V35.62A3.93,3.93,0,0,0,8,38.2ZM38.2,35.6a2.6,2.6,0,0,1-2.6,2.6H10.9a2.6,2.6,0,0,1-2.6-2.59h0V18.7a2.6,2.6,0,0,1,2.6-2.6H35.6a2.59,2.59,0,0,1,2.6,2.6Z"/><path class="cls-3" d="M12.2,26.5H34.3v1.3H12.2ZM27.8,20H18.7v3.9h9.1Zm-1.3,2.6H20V21.3h6.5ZM18.7,34.3h9.1V30.4H18.7v3.9ZM20,31.7h6.5V33H20V31.7Z"/></g></g></svg>