<svg xmlns="http://www.w3.org/2000/svg" viewBox="0 0 50 40"><defs><style>.cls-1{fill:#87a965;}</style></defs><title>shangkongxitong</title><g id="图层_2" data-name="图层 2"><g id="图层_1-2" data-name="图层 1"><path class="cls-1" d="M42.42,40H7.58A7.67,7.67,0,0,1,0,32.28V7.72A7.67,7.67,0,0,1,7.58,0H42.42A7.67,7.67,0,0,1,50,7.72V32.36A7.65,7.65,0,0,1,42.42,40ZM7.58,3.09A4.6,4.6,0,0,0,3,7.72V32.36A4.61,4.61,0,0,0,7.58,37H42.42A4.61,4.61,0,0,0,47,32.36V7.72a4.6,4.6,0,0,0-4.55-4.63Z"/><path class="cls-1" d="M22.27,24.63H8.18a1.55,1.55,0,0,1,0-3.09h14a1.54,1.54,0,0,1,1.51,1.55A1.46,1.46,0,0,1,22.27,24.63Zm19.55,0H27.73a1.55,1.55,0,0,1,0-3.09h14a1.54,1.54,0,0,1,1.52,1.55A1.47,1.47,0,0,1,41.82,24.63ZM22.27,30.81H8.18a1.55,1.55,0,0,1,0-3.09h14a1.54,1.54,0,0,1,1.51,1.55A1.46,1.46,0,0,1,22.27,30.81Zm19.55,0H27.73a1.55,1.55,0,0,1,0-3.09h14a1.54,1.54,0,0,1,1.52,1.55A1.47,1.47,0,0,1,41.82,30.81ZM22.27,12.28H8.18a1.55,1.55,0,0,1,0-3.09h14a1.53,1.53,0,0,1,1.51,1.54A1.47,1.47,0,0,1,22.27,12.28Zm19.55,0H27.73a1.55,1.55,0,0,1,0-3.09h14a1.53,1.53,0,0,1,1.52,1.54A1.48,1.48,0,0,1,41.82,12.28ZM22.27,18.46H8.18a1.55,1.55,0,0,1,0-3.09h14a1.53,1.53,0,0,1,1.51,1.54A1.47,1.47,0,0,1,22.27,18.46Zm19.55,0H27.73a1.55,1.55,0,0,1,0-3.09h14a1.53,1.53,0,0,1,1.52,1.54A1.48,1.48,0,0,1,41.82,18.46Z"/></g></g></svg>