<svg xmlns="http://www.w3.org/2000/svg" viewBox="0 0 40 40"><defs><style>.cls-1{fill:#87a965;}</style></defs><title>shuidianbuxian</title><g id="图层_2" data-name="图层 2"><g id="图层_1-2" data-name="图层 1"><path class="cls-1" d="M31.11,40a8.92,8.92,0,0,1-8.9-8.89c0-4.41,6.9-14.52,7.67-15.67a1.48,1.48,0,0,1,1.23-.63,1.52,1.52,0,0,1,1.22.63C33.11,16.59,40,26.7,40,31.11A8.92,8.92,0,0,1,31.11,40Zm0-21c-2.67,4.11-5.93,9.89-5.93,12.15a5.93,5.93,0,0,0,11.86,0c0-2.26-3.26-8-5.93-12.15Z"/><path class="cls-1" d="M1.46,40a1.54,1.54,0,0,1-.55-.11A1.5,1.5,0,0,1,0,38.26L3.72,16a1.49,1.49,0,0,1,1.45-1.23h5.19l.74-13.4A1.5,1.5,0,0,1,12.58,0H31.11a1.45,1.45,0,0,1,1.26.7,1.55,1.55,0,0,1,.07,1.45L21.73,24.37a1.56,1.56,0,0,1-1.33.82H12.54L2.69,39.37A1.49,1.49,0,0,1,1.46,40Zm5-22.22L4,32.26l6.52-9.41a1.44,1.44,0,0,1,1.23-.63h7.7L28.74,3H14l-.74,13.41a1.5,1.5,0,0,1-1.48,1.41Z"/></g></g></svg>