<svg xmlns="http://www.w3.org/2000/svg" viewBox="0 0 40 40"><defs><style>.cls-1{fill:#87a965;}</style></defs><title>xinfengxitong</title><g id="图层_2" data-name="图层 2"><g id="图层_1-2" data-name="图层 1"><path class="cls-1" d="M14.36,16l.12.32a1.25,1.25,0,0,0,1.6.69,1.18,1.18,0,0,0,.7-.65l.13-.3.24-.22.06-.06a8.08,8.08,0,0,0,1.43-4.61,8.38,8.38,0,0,0-8.47-8.28A8.52,8.52,0,0,0,3.92,5.61l0,0A2.84,2.84,0,0,0,3,7.74a3,3,0,0,0,2.5,2.9l.16,0,.11,0a9.48,9.48,0,0,1,8.41,5.16Zm7-2.43a4.42,4.42,0,0,1,.63,0,2.9,2.9,0,0,1,.51,0,6.53,6.53,0,0,0,6.13-3.15,2.55,2.55,0,0,1,.54-.64,6.1,6.1,0,0,1,7.52-1.23,5.89,5.89,0,0,1,2.79,3.55,11,11,0,0,1-1,8.94,11.61,11.61,0,0,1-15.65,4.1,11.9,11.9,0,0,1-2-1.43,4.15,4.15,0,0,1-.32.53,2.22,2.22,0,0,1-.23.43A6.23,6.23,0,0,0,20,31.46a2.63,2.63,0,0,1,.3.78,5.78,5.78,0,0,1-2.67,7,6.09,6.09,0,0,1-4.54.59,11.41,11.41,0,0,1-7.41-5.32,11.07,11.07,0,0,1,4.19-15.3,11.12,11.12,0,0,1,2.27-1,3.6,3.6,0,0,1-.31-.54,1.82,1.82,0,0,1-.27-.41,6.5,6.5,0,0,0-5.85-3.62,2.75,2.75,0,0,1-.85-.14A5.89,5.89,0,0,1,0,7.74,5.78,5.78,0,0,1,1.75,3.61,11.55,11.55,0,0,1,10.17,0,11.33,11.33,0,0,1,21.63,11.2a10.64,10.64,0,0,1-.27,2.4Zm-3.59,9.32.22-.26A1.2,1.2,0,0,0,17.81,21a1.25,1.25,0,0,0-.93-.26l-.33,0-.32-.1-.08,0a8.6,8.6,0,0,0-4.8,1.09A8.18,8.18,0,0,0,8.25,33,8.42,8.42,0,0,0,13.75,37h.07a3,3,0,0,0,2.29-.29,2.91,2.91,0,0,0,1.32-3.57L17.38,33l0-.12a9.07,9.07,0,0,1,.36-9.7Zm4.4-6.34-.34,0a1.22,1.22,0,0,0-1.42,1,1.18,1.18,0,0,0,.23.92l.2.25.07.32a.19.19,0,0,0,0,.08,8.46,8.46,0,0,0,3.37,3.52,8.58,8.58,0,0,0,11.58-3A8.12,8.12,0,0,0,36.62,13l0-.06a2.94,2.94,0,0,0-1.4-1.8,3.05,3.05,0,0,0-3.82.67l-.11.12-.1.08a9.52,9.52,0,0,1-8.77,4.54Z"/></g></g></svg>