<?xml version="1.0" standalone="no"?>
<!DOCTYPE svg PUBLIC "-//W3C//DTD SVG 1.1//EN" "http://www.w3.org/Graphics/SVG/1.1/DTD/svg11.dtd" >
<!--
2013-9-30: Created.
-->
<svg>
<metadata>
Created by iconfont
</metadata>
<defs>

<font id="iconfont" horiz-adv-x="1024" >
  <font-face
    font-family="iconfont"
    font-weight="500"
    font-stretch="normal"
    units-per-em="1024"
    ascent="896"
    descent="-128"
  />
    <missing-glyph />
    
    <glyph glyph-name="iconfont" unicode="&#58973;" d="M620.672871 787.358755c0-60.031846-48.642531-108.674377-108.673373-108.674377-59.999718 0-108.642249 48.642531-108.642249 108.674377 0 59.998713 48.642531 108.641245 108.642249 108.641245C572.03034 896.000001 620.672871 847.35747 620.672871 787.358755zM620.672871 17.504779 403.326125 17.504779 436.26819 615.982912 587.730806 615.982912Z"  horiz-adv-x="1024" />

    
    <glyph glyph-name="yuandianzhong" unicode="&#59224;" d="M480 416m-288 0a4.5 4.5 0 1 0 576 0 4.5 4.5 0 1 0-576 0Z"  horiz-adv-x="1024" />

    
    <glyph glyph-name="fangda" unicode="&#58906;" d="M838.44096 372.23424c0-20.20352-20.67968-36.57728-46.22848-36.57728H292.64896c-25.53856 0-46.22848 16.39936-46.22848 36.57728V408.0128c0 20.1984 20.73088 36.56704 46.22848 36.56704h499.56352c25.58464 0 46.22848-16.39936 46.22848-36.56704v-35.77856zM555.61216 685.12768c22.95808 0 41.53344-20.73088 41.53344-46.22336v-499.52256c0-25.58976-18.60608-46.27456-41.53344-46.27456h-40.55552c-22.91712 0-41.52832 20.73088-41.52832 46.27456V638.90432c0 25.53856 18.6112 46.22336 41.52832 46.22336h40.55552zM93.75232 756.34176c0 25.68704 20.8128 46.57152 46.5408 46.57152h232.7296V896H140.29312C63.15008 896 0.6656 833.4592 0.6656 756.37248v-232.74496h93.08672V756.34176zM93.75232 11.627520000000004v232.73984H0.6656v-232.73984C0.6656-65.51552000000004 63.16544-128 140.29312-128h232.7296v93.08672H140.29312a46.52032 46.52032 0 0 0-46.5408 46.5408zM0.00512 523.62752h94.208v-279.25504h-94.208zM885.00736 896h-232.70912v-93.08672h232.70912c25.69216 0 46.54592-20.8896 46.54592-46.5408v-232.74496H1024.6656V756.34176C1024.6656 833.4592 962.09408 896 885.00736 896zM931.54816 11.627520000000004c0-25.71264-20.85376-46.54592-46.54592-46.54592h-232.70912V-128h232.70912C962.09408-128 1024.6656-65.51552000000004 1024.6656 11.627520000000004v232.73984h-93.11744v-232.73984zM930.63168 523.62752h94.208v-279.25504h-94.208z"  horiz-adv-x="1024" />

    
    <glyph glyph-name="Arrow_1" unicode="&#59022;" d="M801.768593 44.69980599999997L863.319437 106.24962700000003 309.451888 660.083407 599.582731 660.083407 599.582731 747.99769 159.988808 747.99769 159.988808 308.437535 247.867274 308.437535 247.867274 598.599078Z"  horiz-adv-x="1024" />

    
    <glyph glyph-name="yangguang" unicode="&#59118;" d="M344.189719 598.457647l-57.889397 57.889397-48.231443-48.232466 57.889397-57.889397L344.189719 598.457647zM254.129654 415.187783l-96.462886 0L157.666768 350.89658899999995l96.462886 0L254.129654 415.187783zM543.518311 733.496068l-64.291194 0 0-93.214915 64.291194 0L543.518311 733.496068zM784.677572 608.1145779999999l-48.231443 48.232466-57.89042-57.889397 45.031568-45.027474L784.677572 608.1145779999999zM678.555709 167.57862999999998l57.89042-57.841302 45.07557 44.982449-57.934423 57.885304L678.555709 167.57862999999998zM768.614751 350.89658899999995l96.464932 0 0 64.291194-96.464932 0L768.614751 350.89658899999995zM511.397785 575.990982c-106.116747 0-192.926795-86.855073-192.926795-192.927818 0-106.113677 86.810048-192.923725 192.926795-192.923725 106.11777 0 192.923725 86.810048 192.923725 192.923725C704.32151 489.135909 617.515555 575.990982 511.397785 575.990982M479.227117 32.540209000000004l64.291194 0 0 93.259941-64.291194 0L479.227117 32.540209000000004zM238.068879 157.96979499999998l48.231443-48.231443 57.889397 57.841302-44.982449 45.027474L238.068879 157.96979499999998z"  horiz-adv-x="1024" />

    
    <glyph glyph-name="yuanxingweixuanzhong" unicode="&#58989;" d="M512-64C264.96-64 64 136.96 64 384S264.96 832 512 832s448-200.96 448-448-200.96-448-448-448z m0 832c-211.744 0-384-172.256-384-384s172.256-384 384-384 384 172.256 384 384-172.256 384-384 384z"  horiz-adv-x="1024" />

    
    <glyph glyph-name="yincang3" unicode="&#58944;" d="M856.73779322 396.71557617c-1.56225586 2.14892603-38.98388647 53.26831081-99.81298879 105.03369115-20.36865234 17.33642603-40.94165014 32.62280299-61.56738256 45.81958008l61.94311499 62.41113282a16.47949193 16.47949193 0 1 1-23.39428711 23.22290089L666.05029297 564.82617188c-52.27954127 28.31835938-104.50634791 43.01806615-154.36010768 43.01806615-78.87084935 0-163.67431666-36.68994115-245.23461914-106.10156225C205.62646459 449.98388697 168.21142553 398.86450221 166.64257812 396.71557617a16.47290039 16.47290039 0 0 1 1e-8-19.37329127c1.56225586-2.14892603 38.98388647-53.27490234 99.81298802-105.04028269 20.81689478-17.71875001 41.84472656-33.26879857 62.93188527-46.65673879l-60.02490285-60.47314453a16.47290039 16.47290039 0 1 1 23.38769557-23.2163086l65.97729467 66.4716802c51.81152345-27.82397461 103.55053686-42.23364283 152.96264648-42.23364283 78.87084935 0 163.67431666 36.68994115 245.23461914 106.10815455 60.82910156 51.76538111 98.24414063 102.88476588 99.81298879 105.04028269a16.47290039 16.47290039 0 0 1 0 19.37329127z m-655.91015625-9.6899414c31.86474585 39.74194361 160.72778346 187.85961939 310.86254832 187.8596194 46.10961939 0 90.19555664-14.00097655 130.08911184-34.50805664l-41.02734401-41.33715872c-23.50634791 17.49462916-52.5234375 27.98876928-84.01245091 27.98877004-77.84912135 0-141.18310522-63.34057617-141.18310598-141.19628907 0-31.86474585 10.73144557-61.19165014 28.60180715-84.84960961l-50.91503932-51.29077175c-75.93090846 46.80834961-132.71264647 112.76586889-152.41552709 137.33349635z m207.69433544-1.19311499c0 59.68212891 48.54858398 108.23730443 108.22412134 108.23730444 22.43847682 0 43.30151392-6.86865209 60.60498072-18.61523412L427.59863281 324.59472656a107.63745117 107.63745117 0 0 0-19.07666042 61.23779322z m192.94848632 67.14404272a107.61108423 107.61108423 0 0 0 23.49316406-67.14404272c0-59.68212891-48.54858398-108.23730443-108.22412058-108.23730519a107.54516576 107.54516576 0 0 0-66.49804713 23.02514699l151.22900365 152.35620092z m-89.78027344-253.82373022c-45.54931615 0-89.1145017 13.67797877-128.63232371 33.78295874l43.78930639 44.11230494a140.53051733 140.53051733 0 0 1 89.89892578-32.41186524c77.84912135 0 141.18310522 63.34057617 141.18310522 141.19628906 0 34.5014651-12.47827148 66.1157224-33.09741161 90.67016602l46.65014649 46.99951121c75.27172826-46.75561498 131.50634766-112.07373022 151.07739207-136.48974609-31.81201197-39.73535131-160.48388647-187.85961939-310.86914063-187.85961864z"  horiz-adv-x="1024" />

    
    <glyph glyph-name="xuanzhuananniu" unicode="&#58931;" d="M645.335971 896C931.730153 896 1163.852335 666.717091 1163.852335 384s-232.075636-512-518.516364-512c-80.337455 0-156.16 18.525091-224.069818 50.874182 0 0-48.872727 6.190545-48.872728 57.018182 0 29.742545 24.436364 53.853091 54.551273 53.853091 45.614545 0 65.722182-24.576 65.722182-24.576a412.16 412.16 0 0 1 152.669091-29.323637c226.071273 0 409.320727 180.968727 409.320727 404.247273 0 223.278545-183.249455 404.247273-409.367273 404.247273a409.088 409.088 0 0 1-373.899636-240.826182l81.314909-21.131637c21.178182-5.538909 36.445091-20.573091 42.030546-41.425454 5.678545-20.898909 0-41.425455-15.592728-56.785455l-182.923636-203.636363c-15.639273-15.313455-37.422545-24.110545-58.647273-18.618182-21.131636 5.538909-35.514182 23.738182-41.099636 44.590545L2.357062 526.289455C-3.321484 547.1418180000001 1.984698 576.698182 21.62688 588.5207270000001c18.757818 11.310545 32.861091 15.36 54.039273 9.867637l88.901818-23.133091C241.461062 763.205818 427.596335 896 645.429062 896zM558.761425 477.090909h186.181819v-186.181818h-186.181819V477.090909z"  horiz-adv-x="1163" />

    
    <glyph glyph-name="xing" unicode="&#58947;" d="M566.784 821.248l95.232-201.216c8.704-18.944 26.112-31.744 46.08-34.816l212.48-32.256c50.176-7.68 70.144-72.192 33.792-109.056l-153.6-157.184c-14.336-14.848-20.992-35.84-17.408-56.832l36.352-221.184c8.704-52.224-44.032-92.16-89.088-67.584L540.16 46.08c-17.92 9.728-38.912 9.728-56.832 0L293.376-58.368c-45.056-24.576-97.28 15.36-89.088 67.584L240.64 230.4c3.584 20.992-3.072 41.984-17.408 56.832L69.12 443.392c-36.352 36.864-16.384 101.376 33.792 109.056l212.48 32.256c19.968 3.072 37.376 15.872 46.08 34.816l95.232 201.216c22.528 48.128 87.552 48.128 110.08 0.512z"  horiz-adv-x="1024" />

    
    <glyph glyph-name="straight" unicode="&#59218;" d="M716.4-60.39999998999997l240-1e-8-1e-8 240-204.59999999 0-445 445L306.8 828l-240 0 0-240L272.7 588l443.69999999-443.7 1e-8-204.69999999z m190 190l0-140.00000001-140.00000001 0 1e-8 140 140 1e-8zM116.8 638.00000001L116.8 778l140 0 0-140-140 1e-8z"  horiz-adv-x="1024" />

    
    <glyph glyph-name="dengguang" unicode="&#58884;" d="M860.010018 674.673802C788.090792 825.203459 616.162751 912.59329 446.884247 881.22546c-159.331511-29.526626-265.021114-119.11692-303.125056-266.907225-38.350933-148.957898 13.068058-273.328986 140.650026-370.149374 10.261344-7.768983 18.59167-23.37431 19.175467-35.701396 2.245371-48.006027 0.134722-96.191684 1.167592-144.242619 1.190047-57.234501 35.207414-88.804415 96.10187-89.949554 36.779173-0.718519 73.580801-0.134722 110.404882-0.134722v0.202083c39.046998 0 78.138903-0.920602 117.140994 0.202084 55.572927 1.57176 88.894229 33.54584 89.635201 85.324089 0.696065 44.952323 2.065741 89.994461-0.538889 134.85697-1.459491 26.203477 8.846761 41.202554 30.447228 56.695612 136.159284 97.606268 182.548645 275.686625 112.066456 423.252394z m-208.954205-619.205902c-1.145139-7.724076-17.671068-19.018291-27.438431-19.220374-74.748393-1.616667-149.586602-1.751389-224.334995 0.202083-9.946993 0.291898-26.15857 13.629401-27.887506 22.812967-4.131482 22.027087-1.324769 45.199314-1.324768 69.831032h282.310469c0.022454-24.721532 2.267824-49.555333-1.324769-73.625708z m45.536119 237.156062c-33.074312-22.363893-50.184037-43.425471-43.919452-80.563904 0.808333-4.872455-0.78588-10.126622-1.57176-18.434494H375.705993c-2.267824 3.031251-4.827547 4.917362-4.580556 6.376853 7.971066 47.691676-17.19954 74.344227-57.077326 102.860436C201.420313 383.516572 166.998779 525.064746 222.324715 647.212917c55.52802 122.552338 188.925498 192.001656 336.715803 175.363458 130.523404-14.707179 244.139166-117.096087 264.055604-244.947499 18.209957-117.006272-23.55394-215.533142-126.50419-285.004914zM621.955807-67.937679c-35.611581-0.067361-71.178254 0-106.76738 0-37.812044-0.044907-75.601634-0.157176-113.458586 0.044908-20.387967 0.112269-36.015747-6.960649-37.385424-27.281255-1.481945-21.937273 13.831484-32.108802 35.701396-32.288432 74.478949-0.493982 149.047713-0.628704 223.526661-0.202084 21.735189 0.157176 36.689359 9.789817 35.319683 32.468062-1.257408 21.420837-16.795373 27.348616-36.93635 27.258801z"  horiz-adv-x="1024" />

    
    <glyph glyph-name="fuzhi2" unicode="&#59074;" d="M620.62946531 528.83928709H439.58035645v-325.88839531H222.32142646V673.67857354h398.30803885v-144.83928645z m-36.20982177 108.62946467H258.53124824v-398.30803885h144.83928645V565.04910822h181.04910886V637.46875176zM403.37053469 565.04910822h398.30803886v-470.72768177H403.37053469V565.04910822z m36.20982177-36.20982113v-398.30803886h325.8883953V528.83928709H439.58035645zM584.41964355 456.41964355h36.20982176v-253.46875177h-36.20982176zM475.79017824 347.79017824000005h253.46875176v-36.20982179H475.79017824z"  horiz-adv-x="1024" />

    
    <glyph glyph-name="undo" unicode="&#59231;" d="M20.583424 6.1440000000000055c-14.336 5.632-23.04 20.992-19.968 36.352 1.536 5.12 28.672 137.216 116.224 270.848C168.551424 392.704 231.015424 456.192 301.671424 501.76c80.384 51.712 172.032 80.384 272.384 85.504v168.96c0 12.8 7.68 24.064 19.456 29.184s25.6 2.56 34.816-6.144l384-359.936c6.656-6.144 10.24-14.848 10.24-24.064 0-8.704-4.096-17.408-11.264-23.04l-384-335.872c-9.728-8.192-23.04-10.24-34.304-5.12-11.776 5.12-18.944 16.384-18.944 29.184v198.656c-224.256-2.048-393.728-27.136-514.048-238.592-5.632-10.24-16.384-16.384-27.648-16.384-3.584 0-7.168 0.512-11.776 2.048z m617.984 675.84v-126.464c0-17.408-13.824-31.744-31.744-31.744-181.76 0-328.192-81.92-434.688-243.712-16.896-26.112-31.744-51.712-44.032-76.8 39.936 33.28 84.48 58.88 135.168 77.312 96.256 34.816 206.848 41.984 343.552 41.984 17.408 0 31.744-13.824 31.744-31.744v-160.256l304.128 266.24-304.128 285.184z"  horiz-adv-x="1025" />

    
    <glyph glyph-name="baocun" unicode="&#59097;" d="M833.036886 853.33396H190.972145c-69.148305 0-125.403176-56.844904-125.403175-126.73075v-685.257596c0-69.843702 56.257881-126.676564 125.403175-126.676564h642.037648c69.175398 0 125.424248 56.832862 125.424248 126.676564V726.60321c0 69.885847-56.24885 126.703657-125.397155 126.73075z m-584.313714-45.787797h526.556666v-361.762739H248.723172V807.546163z m663.923071-755.510709c0-42.617874-49.382185-91.581617-91.578607-91.581617H202.932364c-42.18739 0-91.575596 48.963743-91.575596 91.581617V715.970567c0 42.638946 26.491297 91.575596 68.681697 91.575596h22.890888c0.249861-104.06263 0-407.556558 0-407.556558h618.141294V807.546163h22.890888c42.196421 0 68.681697-48.93665 68.681697-91.575596l0.003011-663.935113z m-320.511576 462.423646h45.787798V738.867476h-45.793819v-224.405366h0.006021z m0 0"  horiz-adv-x="1024" />

    
    <glyph glyph-name="bi" unicode="&#58882;" d="M98.796 466.496L664.17-98.37900000000002c15.1-15.1 36.699-24.199 64.897-27.299 28.1-3.1 57.998 0.7 89.59599999 11.3 31.599 10.6 57.998 26.599 79.29700001 47.898l65.897 65.897c21.1 21.299 37.098 47.698 47.698 79.296 10.7 31.499 14.5 61.398 11.4 89.496-3.1 28.1-12.2 49.798-27.3 64.898L428.282 795.8820000000001 0 894.678l98.796-428.182z m632.272-350.784c-20.599-19.9-46.698-33.299-78.196-40.099-31.599-6.9-57.298-5.5-77.197 4.1-0.7 0-1.7-0.2-3.1-0.5l-2.1-0.5L251.18999999 395.4c15.1 12.99899999 34.699 23.198 58.69800001 30.398 23.998 7.2 45.998 11 65.897 11.3 19.899 0.4 37.398-0.9 52.497-3.6L739.268 125.00999999999999l-8.19999999-9.3zM936.96 208.40800000000002c17.8-16.49999999 24.4-43.59800001 19.6-81.297-4.79999999-37.798-19.2-68.597-43.19900001-92.696l-50.39799999-50.39799999c-23.999-23.999-54.897-38.398-92.696-43.19800001-37.698-4.8-64.797 1.7-81.296 19.6l-48.398 47.397c51.498 6.2 93.296 25.4 125.595 57.598l65.797 65.797c32.29799999 32.299 51.098 74.097 56.597 125.595l48.398-48.398zM806.265 339.102c17.20000001-16.5 23.29899999-43.398 18.5-80.797-4.8-37.398-19.2-68.097-43.199-92.096l-8.2-8.2L461.18 466.497c-2.7 15.10000001-3.9 32.599-3.6 52.498 0.3 19.9 4.1 41.898 11.3 65.897 7.2 24 17.299 43.598 30.398 58.698l306.987-304.487zM403.482 738.285l56.598-56.598c-18.5-24.699-33.599-53.998-45.298-87.996-11.7-33.99899999-17.8-65.39699999-18.5-94.196-28.79799999 0-60.597-6-95.195-18-34.699-11.999-64.297-27.298-88.996-45.79700001l-55.598 55.59700001-29.898 156.494c31.598 10.999 56.797 25.898 75.696 44.798 18.9 18.899 33.799 44.098 44.79799999 75.696l156.39300001-29.998z"  horiz-adv-x="1024" />

    
    <glyph glyph-name="yingyong2" unicode="&#58880;" d="M932.9375 703.125C932.9375 757.78125 888.59375 802.125 833.9375 802.125H654.125C599.46875 802.125 555.125 757.78125 555.125 703.125v-179.8125c0-54.65625 44.34375-99 99-99h179.8125c54.65625 0 99 44.34375 99 99V703.125z m-60-185.53125c0-18.1875-30-33.28125-48.28125-33.28125H648.875c-18.1875 0-32.8125 15-32.8125 33.28125V708.46875c0 18.1875 14.625 32.71875 32.8125 32.71875h190.875c18.1875 0 33.09375-14.53125 33.09375-32.71875v-190.875zM932.9375 249.375c0 54.65625-44.34375 99-99 99H654.125C599.46875 348.375 555.125 304.03125 555.125 249.375v-179.8125c0-54.65625 44.34375-99 99-99h179.8125c54.65625 0 99 44.34375 99 99V249.375z m-60-184.875c0-18.1875-14.8125-33-33-33H649.0625c-18.1875 0-33 14.8125-33 33V255.375c0 18.1875 14.8125 33 33 33h190.875c18.1875 0 33-14.8125 33-33v-190.875zM465.125 249.375c0 54.65625-44.34375 99-99 99H186.3125C131.65625 348.375 87.3125 304.03125 87.3125 249.375v-179.8125C87.3125 14.90625 131.65625-29.4375 186.3125-29.4375h179.8125c54.65625 0 99 44.34375 99 99V249.375z m-60.9375-184.875c0-18.1875-14.8125-33-33-33H180.3125c-18.1875 0-33 14.8125-33 33V255.375c0 18.1875 14.8125 33 33 33h190.875c18.1875 0 33-14.8125 33-33v-190.875zM465.125 703.125C465.125 757.78125 420.78125 802.125 366.125 802.125H186.3125C131.65625 802.125 87.3125 757.78125 87.3125 703.125v-179.8125C87.3125 468.65625 131.65625 424.3125 186.3125 424.3125h179.8125c54.65625 0 99 44.34375 99 99V703.125z m-60.9375-185.8125c0-18.1875-14.8125-33-33-33H180.3125c-18.1875 0-33 14.8125-33 33V708.1875c0 18.1875 14.8125 33 33 33h190.875c18.1875 0 33-14.8125 33-33v-190.875z"  horiz-adv-x="1024" />

    
    <glyph glyph-name="dg_huxing" unicode="&#58945;" d="M836.8 512H624V708.8A59.2 59.2 0 0 1 564.8 768H416a16 16 0 0 1 0-32h148.8a27.2 27.2 0 0 0 27.2-27.2V400h-80a16 16 0 0 1 0-32h192a16 16 0 0 1 0 32h-80v80h212.8a27.2 27.2 0 0 0 27.2-27.2v-395.2a25.6 25.6 0 0 0-25.6-25.6H624V240a16 16 0 0 1-32 0v-208H185.6a25.6 25.6 0 0 0-25.6 25.6V368h224a16 16 0 0 1 0 32H160V710.4a25.6 25.6 0 0 0 25.6 25.6H288a16 16 0 0 1 0 32h-102.4A57.6 57.6 0 0 1 128 710.4v-320a14.4 14.4 0 0 1 0-14.4v-320a57.6 57.6 0 0 1 57.6-56h652.8a57.6 57.6 0 0 1 57.6 57.6V452.8a59.2 59.2 0 0 1-59.2 59.2z"  horiz-adv-x="1024" />

    
    <glyph glyph-name="_celiang-" unicode="&#59122;" d="M911.20128 552.69376c0 5.12-5.11488 10.24-5.11488 20.47488-51.17952 194.4832-245.66272 312.19712-429.91104 255.8976h-10.24C286.80704 777.88672 179.328 583.3984 230.50752 394.0352c0-10.23488 5.12-15.35488 5.12-25.58976l81.88928-255.8976-266.13248-61.4144v-127.9488h51.17952V5.06880000000001l562.97984 133.06368c174.00832 40.94976 286.60736 230.31296 245.6576 414.56128z m-261.0176-363.37664L368.69632 122.7776l-81.88928 261.0176c0 5.12-5.12 15.35488-5.12 20.46976-40.94464 163.77856 51.17952 327.552 204.71808 373.61664l10.23488 5.12c158.65856 46.06464 322.43712-51.17952 368.49664-220.07296 0-5.12 5.12-10.23488 5.12-15.35488 30.71488-163.77344-66.52928-322.432-220.07296-358.25664zM563.17952 690.87744c-112.59392 0-204.71808-92.12416-204.71808-204.71808 0-112.59904 92.12416-204.71808 204.71808-204.71808s204.71808 92.11904 204.71808 204.71808c0 112.59392-92.12416 204.71808-204.71808 204.71808z m0-358.25664c-87.00416 0-153.53856 66.5344-153.53856 153.53856 0 87.00416 66.5344 153.53856 153.53856 153.53856s153.53856-66.5344 153.53856-153.53856c0-87.00928-66.5344-153.53856-153.53856-153.53856z"  horiz-adv-x="1024" />

    
    <glyph glyph-name="xingzhuang-juxing" unicode="&#60311;" d="M864 0H160a32 32 0 0 0-32 32V736a32 32 0 0 0 32 32h704a32 32 0 0 0 32-32v-704a32 32 0 0 0-32-32zM192 64h640V704H192v-640z"  horiz-adv-x="1024" />

    
    <glyph glyph-name="daochu" unicode="&#58919;" d="M928.131418 323.902212A52.062467 52.062467 0 0 1 876.068951 271.145579v-295.020645H147.194415V271.145579A52.062467 52.062467 0 0 1 43.069482 271.145579v-347.083112a52.756633 52.756633 0 0 1 52.062467-52.062467h832.999469a52.756633 52.756633 0 0 1 52.062467 52.062467V271.145579a52.062467 52.062467 0 0 1-52.062467 52.756633zM307.546813 532.846246L459.569216 706.387802V201.728957a52.062467 52.062467 0 1 1 104.124934 0V706.387802l152.022403-173.541556a50.674134 50.674134 0 0 1 38.873309-18.048322 48.591636 48.591636 0 0 1 34.014145 13.189158 51.368301 51.368301 0 0 1 4.859163 73.58162l-242.958178 277.66649a53.450799 53.450799 0 0 1-77.746617 0l-242.958179-277.66649a52.062467 52.062467 0 1 1 77.746617-69.416623z"  horiz-adv-x="1024" />

    
    <glyph glyph-name="xinxi" unicode="&#58968;" d="M502.89777778 881.86728297c-274.96356978 0-497.86606933-222.90249955-497.86606933-497.86606934 0-274.96599703 222.90249955-497.86849659 497.86606933-497.8684966s497.86606933 222.90249955 497.86606933 497.8684966c0 274.96356978-222.90249955 497.86606933-497.86606933 497.86606934z m0-916.3486246c-231.11998578 0-418.48134163 187.36135585-418.48134163 418.48255526 0 231.12119941 187.36135585 418.48134163 418.48134163 418.48134162 231.12119941 0 418.48255525-187.36135585 418.48255525-418.48134162 0-231.12241303-187.36135585-418.48255525-418.48255525-418.48255526zM502.89777778 625.19796622m-50.97001719 0a50.97001718 50.97001718 0 1 1 101.94003438 0 50.97001718 50.97001718 0 1 1-101.94003438 0ZM553.86779497 140.37841541c0-26.81150578-21.73367941-48.54518518-48.54518519-48.54518519h-4.849664c-26.81029215 0-48.54518518 21.73367941-48.54518519 48.54518519V474.71274667c0 26.81029215 21.73489303 48.54518518 48.54518519 48.54518518h4.849664c26.81150578 0 48.54518518-21.73489303 48.54518519-48.54518518v-334.33433126z"  horiz-adv-x="1024" />

    
    <glyph glyph-name="fangda2" unicode="&#59043;" d="M896 896h-768C57.599493 896 0 838.399493 0 768v-768C0-70.400507 57.600507-128 128-128h768c70.400507 0 128 57.600507 128 128v768C1024 838.400507 966.399493 896 896 896z m64-896c0-35.200253-28.799747-64-64-64h-768c-35.200253 0-64 28.799747-64 64v768c0 35.200253 28.799747 64 64 64h768c35.200253 0 64-28.799747 64-64v-768z m-512 64H236.799493L454.400507 281.6 409.6 326.400507 192 108.799493V320c0 19.200507-12.8 32.000507-32.000507 32.000507-19.199493 0-31.999493-12.8-31.999493-32.000507v-288.000507c0-9.59924 3.199747-15.998733 9.600253-22.39924 6.399493-6.400507 15.999747-9.600253 22.400254-9.600253h287.999493c19.200507 0 32.000507 12.8 32.000507 32.000507 0 15.998733-12.8 31.999493-32.000507 31.999493zM864.000507 768H576c-19.200507 0-32.000507-12.8-32.000507-32.000507 0-19.199493 12.8-31.999493 32.000507-31.999493h211.200507L569.600507 486.4 614.4 441.599493l217.6 217.6v-211.199493c0-19.200507 12.8-32.000507 32.000507-32.000507 19.199493 0 31.999493 12.8 31.999493 32.000507V736.000507c0 9.59924-3.199747 15.998733-9.600253 22.39924-6.399493 6.400507-12.8 9.600253-22.39924 9.600253z"  horiz-adv-x="1024" />

    
    <glyph glyph-name="xiangji" unicode="&#58932;" d="M973.293382 543.526788a39.873939 39.873939 0 1 0 39.160242 39.873939 39.532606 39.532606 0 0 0-39.160242-39.873939M108.82017-128A112.826182 112.826182 0 0 0 0.058958-11.667394V629.884121a112.857212 112.857212 0 0 0 108.761212 116.301576h199.400727l1.582545 3.971879c26.59297 66.52897 71.369697 145.842424 133.740606 145.842424h354.21091c66.156606 0 109.164606-79.251394 133.616484-145.842424l1.520485-4.127031H1132.665018A112.826182 112.826182 0 0 0 1241.271079 629.72897v-641.551515A112.826182 112.826182 0 0 0 1132.665018-128H108.82017z m0 807.129212a46.545455 46.545455 0 0 1-42.94594-49.307151v-641.551516a46.545455 46.545455 0 0 1 42.94594-49.276121H1132.665018a46.545455 46.545455 0 0 1 42.94594 49.276121V629.884121A46.545455 46.545455 0 0 1 1132.665018 679.191273h-223.418182a32.861091 32.861091 0 0 0-31.340606 23.179636c-26.437818 83.161212-60.38497 126.665697-80.244363 126.665697H443.575079c-17.563152 0-52.161939-44.776727-81.733818-127.751758a33.016242 33.016242 0 0 0-31.030303-22.093575H108.82017zM620.665018 111.305697a232.913455 232.913455 0 1 0 228.817455 232.727273 231.144727 231.144727 0 0 0-228.817455-232.727273z m0 398.739394a165.888 165.888 0 1 1 162.971152-165.888A164.646788 164.646788 0 0 1 620.665018 510.045091z"  horiz-adv-x="1241" />

    
    <glyph glyph-name="fuzhi" unicode="&#58954;" d="M858.112 667.648H290.816a62.976 62.976 0 0 1-62.976-62.976v-567.296A62.976 62.976 0 0 1 290.816-25.6h567.296A62.976 62.976 0 0 1 921.6 37.376V604.672a62.976 62.976 0 0 1-63.488 62.976z m0-630.272H290.816V604.672h567.296zM385.536 289.28h157.696v-157.696a31.744 31.744 0 0 1 62.976 0v157.696h157.696a31.744 31.744 0 0 1 0 62.976h-157.696V509.952a31.744 31.744 0 1 1-62.976 0v-157.696H385.536a31.744 31.744 0 0 1 0-62.976zM733.184 761.856A31.744 31.744 0 0 1 701.44 793.6H134.656a31.744 31.744 0 0 1-32.256-31.744v-565.76a31.744 31.744 0 1 1 62.976 0V730.624H701.44a31.744 31.744 0 0 1 31.744 31.232z"  horiz-adv-x="1024" />

    
    <glyph glyph-name="poweroff" unicode="&#59036;" d="M705.6 771.1c-5.3 2.7-11.6-1.2-11.6-7.2v-64.2c0-5.5 2.9-10.6 7.5-13.6 22.4-14.1 43.2-30.7 62.2-49.8 32.7-32.8 58.4-70.9 76.3-113.3 18.5-43.9 27.9-90.5 27.9-138.7 0-48.1-9.4-94.8-27.9-138.7-17.9-42.4-43.6-80.5-76.3-113.3-32.7-32.8-70.8-58.5-113.2-76.4-43.8-18.6-90.5-28-138.5-28s-94.7 9.4-138.5 28c-42.4 17.9-80.5 43.6-113.2 76.4-32.7 32.8-58.4 70.9-76.3 113.3-18.5 43.9-27.9 90.5-27.9 138.7 0 48.1 9.4 94.8 27.9 138.7 17.9 42.4 43.6 80.5 76.3 113.3 19 19 39.8 35.6 62.2 49.8 4.7 2.9 7.5 8.1 7.5 13.6V764c0 6-6.3 9.8-11.6 7.2C178.5 700.8 82 556.7 80 389.7 77.2 150.9 272.5-47.5 511.2-48c239-0.5 432.8 193.3 432.8 432.4 0 169.2-97 315.7-238.4 386.7zM480 336h64c4.4 0 8 3.6 8 8V808c0 4.4-3.6 8-8 8h-64c-4.4 0-8-3.6-8-8v-464c0-4.4 3.6-8 8-8z"  horiz-adv-x="1024" />

    
    <glyph glyph-name="camera" unicode="&#58958;" d="M899.531801 595.360604H265.252676c-13.750139 0-21.716128 14.216052-17.784271 31.216224l57.477853 248.24114C307.594012 886.249902 318.685033 895.431812 329.651053 895.431812h505.482371c10.96602 0 22.057041-9.181911 24.704795-20.613844l57.466489-248.24114c3.943222-17.000171-4.022768-31.216224-17.772907-31.216224zM0.568188 711.8617790000001m52.08007 0l1059.487961 0q52.080071 0 52.08007-52.080071l0-661.904404q0-52.080071-52.08007-52.080071l-1059.487961 0q-52.080071 0-52.08007 52.080071l0 661.904404q0 52.080071 52.08007 52.080071ZM354.003571 328.835188a232.11597800000004 228.388667 90 1 1 456.777335 0 232.11597800000004 228.388667 90 1 1-456.777335 0ZM433.197552 328.835188a151.62653 149.194687 90 1 1 298.389373 0 151.62653 149.194687 90 1 1-298.389373 0Z"  horiz-adv-x="1253" />

    
    <glyph glyph-name="house" unicode="&#58915;" d="M406.101333 298.410667H276.010667a21.333333 21.333333 0 0 1-21.333334-21.333334v-129.706666a21.333333 21.333333 0 0 1 21.333334-21.333334h130.090666a21.333333 21.333333 0 0 1 21.333334 21.333334v129.706666a21.333333 21.333333 0 0 1-21.333334 21.333334z m-21.333333-129.706667H297.344v87.04h87.424v-87.04zM1016.832 428.373333L525.952 843.989333a21.418667 21.418667 0 0 1-27.562667 0L7.466667 428.373333a21.418667 21.418667 0 0 1-2.517334-30.08c7.637333-8.96 21.12-10.069333 30.08-2.517333l49.28 41.728v-543.402667a21.333333 21.333333 0 0 1 21.333334-21.333333H918.613333a21.333333 21.333333 0 0 1 21.333334 21.333333V437.546667l49.28-41.728a21.376 21.376 0 0 1 27.605333 32.554666zM552.533333-84.52266699999996v340.309334h173.056v-340.309334H552.533333z m344.746667 0h-129.024v361.642667a21.333333 21.333333 0 0 1-21.333333 21.333333H531.2a21.333333 21.333333 0 0 1-21.333333-21.333333v-361.642667H127.018667V473.642667l385.152 326.101333 385.152-326.101333v-558.165334z"  horiz-adv-x="1024" />

    
    <glyph glyph-name="d-" unicode="&#58970;" d="M426.12 697.48H142.68c-17.67 0-32-14.33-32-32s14.33-32 32-32h251.44V413.9H142.68c-17.67 0-32-14.33-32-32s14.33-32 32-32h251.44v-219.57H142.68c-17.67 0-32-14.33-32-32s14.33-32 32-32h283.44c17.67 0 32 14.33 32 32 0 0.09-0.01 0.18-0.01 0.27 0 0.09 0.01 0.18 0.01 0.27V659.05c0 1.09-0.06 2.16-0.16 3.21 0.11 1.06 0.16 2.13 0.16 3.21 0 17.68-14.33 32.01-32 32.01zM858.99 600.62c-18.79 29.52-40.98 52.9-65.96 69.49-26.35 17.51-54.55 26.67-83.86 27.3-0.63 0.04-1.27 0.06-1.91 0.06H534.53c-0.74 0-1.47-0.03-2.2-0.08-0.73 0.05-1.46 0.08-2.2 0.08-17.67 0-32-14.33-32-32V105.3c0-17.67 14.33-32 32-32 0.74 0 1.47 0.03 2.2 0.08 0.73-0.05 1.46-0.08 2.2-0.08h172.74c0.64 0 1.28 0.02 1.91 0.06 29.31 0.63 57.51 9.79 83.86 27.3 24.98 16.6 47.17 39.98 65.96 69.5 36.9 57.97 57.22 134.41 57.22 215.24-0.01 80.81-20.33 157.25-57.23 215.22zM805 204.52c-27.59-43.35-62.78-67.22-99.07-67.22H562.12V633.48h143.81c36.29 0 71.48-23.87 99.07-67.22 30.45-47.83 47.21-112.06 47.21-180.87S835.45 252.35 805 204.52z"  horiz-adv-x="1024" />

    
    <glyph glyph-name="qingkong" unicode="&#58896;" d="M51.227 228.42V391.394c0 49.921 40.417 90.532 90.092 90.532h217.437V805.468C358.755 855.388 399.172 896 448.847 896h126.3c49.68 0 90.092-40.612 90.092-90.532v-323.541h217.442c49.675 0 90.092-40.612 90.092-90.532V228.42H51.227z m835.75 162.974c0 2.381-1.93 4.322-4.296 4.322H643.789c-35.481 0-64.346 29.003-64.346 64.658V805.468c0 2.381-1.925 4.322-4.296 4.322h-126.3c-2.371 0-4.301-1.941-4.301-4.322v-345.094c0-35.655-28.865-64.658-64.346-64.658H141.319c-2.371 0-4.296-1.941-4.296-4.322v-76.763h749.955v76.763z m85.796-428.862c0-49.921-40.417-90.532-90.092-90.532H141.319c-49.675 0-90.092 40.612-90.092 90.532V174.326h921.547v-211.794z m-835.75 0c0-2.381 1.925-4.322 4.296-4.322h511.58v60.925c0 23.77 19.243 43.11 42.895 43.11 23.652 0 42.895-19.341 42.895-43.11v-60.925h11.736v60.925c0 23.77 19.243 43.11 42.895 43.11 23.652 0 42.895-19.341 42.895-43.11v-60.925h46.464c2.371 0 4.296 1.941 4.296 4.322V88.115H137.023v-125.583z"  horiz-adv-x="1024" />

    
    <glyph glyph-name="diejia" unicode="&#58888;" d="M995.818818 315.848282l-434.792765-207.732899c-41.661774-19.262971-58.20489-19.262971-96.666835 0L29.406461 315.848282c-23.006771 13.055302-29.246437 61.340722-29.246437 87.707313a821.876081 821.876081 0 0 1 68.284351-36.318059L512.580641 149.617165l444.232262 217.620371c0.703962 0.19199 40.317846 21.374858 68.316349 36.318059 0-27.006557-7.935576-77.019884-29.310434-87.707313z m0 217.684367L560.898059 325.735753c-41.597777-19.262971-58.140893-19.262971-96.634836 0L29.406461 533.532649c-34.142176 19.262971-33.054234 79.963727 0 102.618517L464.359218 880.202124c38.36595 20.414909 62.428664 21.534849 96.666835 0l434.792765-244.050958c32.990237-19.166976 31.934294-86.747364 0-102.618517zM512.580641 838.796337L68.380378 584.857907 512.580641 385.860541l444.232262 198.997366L512.580641 838.796337z m0-906.927536l444.232262 217.684367c0.671964 0.19199 40.253849 21.438854 68.316349 36.254063 0-26.878564-7.999573-76.859893-29.37443-87.547322l-434.792766-207.732899c-41.597777-19.326967-58.20489-19.326967-96.666834 0L29.342465 98.227911c-23.102765 12.991306-29.310434 61.180731-29.310434 87.547322a840.691076 840.691076 0 0 1 68.348347-36.254063L512.580641-68.131199z"  horiz-adv-x="1025" />

    
    <glyph glyph-name="bangzhu" unicode="&#58881;" d="M512-93.86666666999997C248.10666667-93.86666666999997 34.13333333 120.10666666999998 34.13333333 384S248.10666667 861.86666667 512 861.86666667s477.86666667-213.97333333 477.86666667-477.86666667-213.97333333-477.86666667-477.86666667-477.86666667z m0 63.68c228.69333333 0 414.18666667 185.38666667 414.18666667 414.18666667S740.69333333 798.18666667 512 798.18666667 97.81333333 612.69333333 97.81333333 384 283.30666667-30.186666670000022 512-30.186666670000022zM524.37333333 617.6c43.52 0 78.82666667-11.52 106.02666667-36.05333333 27.2-23.78666667 40.74666667-56.42666667 40.74666667-97.17333334 0-33.28-8.85333333-61.12-25.81333334-82.88-6.08-7.46666667-25.17333333-25.17333333-57.06666666-53.01333333-12.90666667-10.88-22.4-23.14666667-28.58666667-35.30666667-7.46666667-13.54666667-10.88-28.58666667-10.88-44.90666666v-11.52h-72.74666667v11.52c0 25.17333333 4.05333333 46.93333333 13.54666667 64.53333333 8.85333333 18.98666667 34.66666667 46.93333333 76.8 84.26666667l11.52 12.90666666c12.26666667 15.68 18.98666667 31.89333333 18.98666667 49.6 0 23.78666667-6.82666667 42.13333333-19.73333334 55.68-13.54666667 13.54666667-33.28 20.37333333-57.81333333 20.37333334-30.61333333 0-53.01333333-9.49333333-66.56-29.22666667-12.26666667-16.32-18.34666667-39.46666667-18.34666667-69.33333333h-71.36c0 49.6 14.29333333 88.32 42.77333334 116.90666666 28.8 29.33333333 68.26666667 43.62666667 118.50666666 43.62666667z m-12.16-397.54666667c14.29333333 0 26.45333333-4.05333333 36.05333334-13.54666666 9.49333333-8.85333333 14.29333333-20.37333333 14.29333333-34.66666667 0-14.29333333-5.44-25.81333333-14.93333333-35.30666667-9.49333333-8.85333333-21.76-13.54666667-35.30666667-13.54666666-13.54666667 0-25.81333333 4.8-35.30666667 14.29333333-9.49333333 9.49333333-14.29333333 21.12-14.29333333 34.66666667 0 14.29333333 4.8 25.81333333 14.29333333 34.66666666 9.28 9.38666667 21.54666667 13.44 35.2 13.44z"  horiz-adv-x="1024" />

    
    <glyph glyph-name="zuijiachicun" unicode="&#59039;" d="M244.02850651-80.73799674999998V50.013268450000055h568.30105848a33.65053852 33.65053852 0 0 1 33.65716656 33.65716656V650.67239844h129.45217016a33.65053852 33.65053852 0 1 1 0 67.31433311h-130.75126521V848.73799675a33.65053852 33.65053852 0 1 1-67.31433311 0V717.9867315500001H210.37133996a33.65053852 33.65053852 0 0 1-33.65716655-33.65716656v-567.00859146H47.26200325a33.65053852 33.65053852 0 1 1 0-67.31433311H178.01326845v-130.75126521a33.65053852 33.65053852 0 1 1 67.31433311 0h-1.29909505z m0 731.41039519h534.64389193v-533.35142491H244.02850651V650.67239844zM284.48603796 581.73419651a29.09044978 29.09044978 0 0 0-20.61319181 8.53691032l-2.29330043 2.29330043a29.14347407 29.14347407 0 1 0 41.2263836 41.22638361l2.29330044-2.29330044a29.14347407 29.14347407 0 0 0-20.6131918-49.76329392zM685.68768208 180.50604024999996a29.03079746 29.03079746 0 0 0-20.60656375 8.54353834l-4.77881394 4.77881391a29.12358997 29.12358997 0 0 0 0 41.21975559 29.12358997 29.12358997 0 0 0 41.21975558 0l4.77881393-4.77881392a29.12358997 29.12358997 0 0 0 0-41.21975558 29.0573096 29.0573096 0 0 0-20.61319182-8.54353834z m-57.31262686 57.3192549a29.03079746 29.03079746 0 0 0-20.60656376 8.54353833l-4.77881392 4.77881393a29.12358997 29.12358997 0 0 0 0 41.21975558 29.12358997 29.12358997 0 0 0 41.21975557 0l4.77881392-4.77218589a29.13684604 29.13684604 0 0 0 0-41.22638362 29.0573096 29.0573096 0 0 0-20.61319181-8.54353833z m-57.31262687 57.32588293a29.03742549 29.03742549 0 0 0-20.61319181 8.5369103l-4.77881391 4.77881392a29.14347407 29.14347407 0 0 0 0 41.22638362 29.14347407 29.14347407 0 0 0 41.22638361 0l4.77881392-4.77881393a29.14347407 29.14347407 0 0 0-20.61319181-49.76329391z m-57.31925489 57.31262687a29.07719372 29.07719372 0 0 0-20.61319182 8.5369103l-4.77881392 4.77881392a29.16335819 29.16335819 0 0 0 41.22638362 41.22638361l4.77881392-4.77881392a29.14347407 29.14347407 0 0 0-20.6131918-49.76329391z m-57.31262687 57.3192549a29.07719372 29.07719372 0 0 0-20.61319181 8.5369103l-4.77881393 4.77881392a29.14347407 29.14347407 0 1 0 41.22638363 41.22638361l4.77881392-4.77881391a29.14347407 29.14347407 0 0 0-20.61319181-49.76329392z m-57.31262687 57.31925489a29.07719372 29.07719372 0 0 0-20.61319181 8.53691032l-4.77218588 4.77881392a29.14347407 29.14347407 0 1 0 41.22638362 41.22638361l4.77881392-4.77218589a29.16335819 29.16335819 0 0 0-20.61981985-49.76992196z m-57.31262686 57.31925491a29.05068157 29.05068157 0 0 0-20.6131918 8.5369103l-4.77881392 4.77881393a29.16335819 29.16335819 0 0 0 41.23301164 41.22638361l4.77218589-4.77881392a29.14347407 29.14347407 0 0 0-20.61319181-49.76329392zM740.51479547 125.67229883000005a29.03079746 29.03079746 0 0 0-20.60656377 8.54353833l-2.29330044 2.28667241a29.14347407 29.14347407 0 1 0 41.22638361 41.2263836l2.29330045-2.29330043a29.13684604 29.13684604 0 0 0-20.61981985-49.76329391z"  horiz-adv-x="1024" />

    
    <glyph glyph-name="huabanfuben" unicode="&#58883;" d="M410.504533-3.4474669999999605V379.613867L110.865067 771.447467h802.269866L613.495467 379.613867v-261.290667l-202.990934-121.770667z m-213.162666 732.16l255.8976-334.609066v-322.048l117.538133 70.485333v251.562667L826.6752 728.712533H197.341867z"  horiz-adv-x="1024" />

    
    <glyph glyph-name="yuanhu" unicode="&#58990;" d="M110.58763093 1.5260785799999894a22.88225849 22.88225849 0 0 0-20.33072355 12.35572053c-35.01661298 67.56324693-55.6793856 140.13053155-61.41742649 215.69790862-5.94775609 78.23542045 4.50305138 155.67858347 31.05532586 230.162432 25.38136462 71.20996125 63.95731058 135.32455822 114.6617856 190.57286258 48.96267378 53.34921671 107.10621298 96.206848 172.81697565 127.38450774 65.70493725 31.17765973 135.67990898 49.10248391 207.96757333 53.27931164 74.8683264 4.32828871 148.92109369-6.34971022 220.13688036-31.72524942a22.88225849 22.88225849 0 0 0-15.36746382-43.10229902c-129.40592925 46.11986773-269.01799822 39.09440853-393.12861867-19.7889593S149.11697351 573.78643058 102.99128035 444.38632675c-47.73350969-133.92063147-37.56814791-283.16212338 27.88629618-409.4456263a22.88225849 22.88225849 0 0 0-20.2899456-33.41462187zM895.90114987 678.04401209h-128.11268552a22.87643307 22.87643307 0 0 0-22.87643306 22.87643306V829.03895609a22.87643307 22.87643307 0 0 0 22.87643306 22.87643306h128.11268552a22.87643307 22.87643307 0 0 0 22.87643306-22.87643306v-128.11851094a22.87643307 22.87643307 0 0 0-22.87643306-22.87643306z m-105.23625245 45.75869156h82.3656448V806.1566976h-82.3656448v-82.35399395zM253.16483982-68.60617954999998H125.05215431a22.87643307 22.87643307 0 0 0-22.87643306 22.87060764v128.11851093a22.87643307 22.87643307 0 0 0 22.87643306 22.87643307h128.11851094a22.87643307 22.87643307 0 0 0 22.87643306-22.87643307v-128.11851093a22.87643307 22.87643307 0 0 0-22.88225849-22.87060764z m-105.23625244 45.7470407h82.35981937v82.3656448H147.92858738v-82.3656448z"  horiz-adv-x="1024" />

    
    <glyph glyph-name="show" unicode="&#58890;" d="M842.10333333 519.19c-13.25 11.42-25.77 22.21-35.08 32.14-63.83 68.05-169.42 108.68-282.44 108.68-85.7 0-167.65-23.18-230.76-65.28-6.51-4.34-8.27-13.14-3.93-19.66 4.34-6.51 13.14-8.27 19.66-3.93 58.51 39.02 134.87 60.51 215.04 60.51 105.34 0 203.19-37.28 261.77-99.73 10.34-11.02 23.41-22.29 37.26-34.22 32.44-27.95 69.21-59.63 69.21-88.5 0-28.74-36.59-60.11-68.88-87.79-13.97-11.98-27.16-23.29-37.59-34.4-58.57-62.45-156.43-99.73-261.77-99.73-54.3 0-107.83 10.02-154.81 28.97-45.14 18.21-83.63 44.33-111.31 75.53-10.91 12.3-25.87 24.7-41.7 37.82-30.6 25.37-65.29 54.13-65.29 79.61 0 25.58 34.83 54.61 65.56 80.23 15.73 13.11 30.58 25.49 41.43 37.72 5.19 5.86 4.66 14.81-1.2 20.01-5.86 5.2-14.81 4.66-20.01-1.2-9.43-10.63-23.49-22.35-38.37-34.75-35.51-29.6-75.76-63.15-75.76-102 0-38.8 40.13-72.07 75.54-101.43 14.97-12.41 29.11-24.14 38.58-34.81 63.34-71.41 170.75-114.03 287.32-114.03 113.02 0 218.61 40.63 282.44 108.68 9.37 9.99 22 20.82 35.36 32.28 36.92 31.66 78.77 67.54 78.77 109.31 0.01 41.85-41.98 78.04-79.04 109.97zM593.18333333 551.8299999999999c-21.92 10.79-45.5 16.26-70.09 16.26-87.63 0-158.92-71.29-158.92-158.92s71.29-158.92 158.92-158.92 158.92 71.29 158.92 158.92c0 25.99-6.42 51.79-18.56 74.59-3.68 6.91-12.26 9.53-19.17 5.85-6.91-3.68-9.53-12.26-5.85-19.17 9.97-18.72 15.24-39.91 15.24-61.27 0-72-58.57-130.57-130.57-130.57S392.53333333 337.16999999999996 392.53333333 409.17s58.57 130.57 130.57 130.57c20.21 0 39.58-4.49 57.57-13.34 7.02-3.45 15.52-0.56 18.98 6.46 3.44 7.02 0.55 15.51-6.47 18.97zM518.15333333 334.09000000000003c-7.81 0.59-14.6-5.28-15.18-13.09-0.58-7.81 5.28-14.6 13.09-15.18 3.06-0.23 6.07-0.34 9.05-0.34 36.07 0 66.3 16.57 87.81 48.29 16.89 24.9 22.31 50.51 22.53 51.59 1.58 7.65-3.34 15.12-10.98 16.72-7.66 1.6-15.15-3.31-16.77-10.96-0.05-0.22-4.74-21.85-18.7-42.11-17.47-25.36-41.32-37.1-70.85-34.92z"  horiz-adv-x="1024" />

    
    <glyph glyph-name="hide" unicode="&#58916;" d="M840.69 524.52666666c-13.25 11.42-25.78 22.21-35.08 32.14-24.12 25.72-54.21 47.51-88.4 64.69l62.65 73.05c5.1 5.94 4.41 14.89-1.53 19.98-5.94 5.1-14.89 4.41-19.99-1.53l-68.01-79.31c-50.34 20.56-107.72 31.8-167.16 31.8-85.7 0-167.65-23.18-230.76-65.28-6.51-4.34-8.27-13.14-3.93-19.66 4.34-6.51 13.14-8.27 19.66-3.93 58.51 39.02 134.87 60.51 215.04 60.51 52.38 0 102.91-9.22 147.68-26.17l-57.04-66.52c-10.64 7.84-19.96 12.01-22.46 13.06-21.8 10.65-45.23 16.05-69.67 16.05-87.63 0-158.92-71.29-158.92-158.92 0-17.22 2.74-34.16 8.15-50.36 1.98-5.94 7.51-9.69 13.44-9.69 1.49 0 3 0.24 4.49 0.73 7.42 2.48 11.43 10.51 8.96 17.93-4.44 13.29-6.69 27.22-6.69 41.38 0 72 58.57 130.57 130.57 130.57 20.21 0 39.58-4.49 57.57-13.34l1.01-0.45c0.09-0.04 6.82-2.79 15.03-8.57L345.7 231.67666666000002c-35.39 17.26-65.73 39.61-88.66 65.45-10.91 12.3-25.87 24.7-41.7 37.82-30.6 25.37-65.29 54.12-65.29 79.61 0 25.58 34.83 54.61 65.56 80.23 15.73 13.11 30.58 25.49 41.43 37.72 5.19 5.86 4.66 14.81-1.2 20.01-5.86 5.19-14.81 4.66-20.01-1.2-9.43-10.63-23.49-22.35-38.37-34.75-35.51-29.6-75.76-63.15-75.76-102 0-38.8 40.13-72.07 75.54-101.43 14.97-12.41 29.11-24.14 38.58-34.81 24.39-27.5 55.32-50.72 90.79-68.89l-88.05-102.68c-5.1-5.94-4.41-14.89 1.53-19.99 2.67-2.29 5.95-3.42 9.22-3.42 3.99 0 7.96 1.68 10.77 4.95l93.26 108.75c50.83-21.19 109.07-32.77 169.81-32.77 113.02 0 218.61 40.63 282.44 108.68 9.37 9.99 22 20.82 35.36 32.28 36.92 31.66 78.77 67.54 78.77 109.31 0.02 41.87-41.97 78.05-79.03 109.98zM822.52 326.76666666000006c-13.97-11.98-27.16-23.29-37.59-34.4-58.57-62.45-156.43-99.73-261.77-99.73-52.57 0-104.41 9.39-150.29 27.18l56.2 65.53c27.08-19.49 58.94-29.76 92.61-29.76 87.63 0 158.92 71.29 158.92 158.92 0 25.99-6.42 51.79-18.56 74.59-3.68 6.91-12.26 9.53-19.17 5.85-6.91-3.68-9.53-12.26-5.85-19.17 9.97-18.72 15.24-39.91 15.24-61.27 0-72-58.57-130.57-130.57-130.57-26.84 0-52.27 7.93-74.07 23.02l250.59 292.22c33.81-16.13 63.4-37.01 86.74-61.9 10.34-11.02 23.42-22.29 37.26-34.22 32.44-27.95 69.21-59.63 69.21-88.5-0.02-28.74-36.62-60.11-68.9-87.79z"  horiz-adv-x="1024" />

    
    <glyph glyph-name="draw" unicode="&#58894;" d="M1003.20256 6.1440000000000055c-4.608-1.536-8.192-2.048-11.776-2.048-11.264 0-22.016 6.144-27.648 16.384-120.32 211.456-289.792 236.544-514.04288 238.592v-198.656c0-12.8-7.16288-24.064-18.944-29.184-11.25888-5.12-24.576-3.072-34.29888 5.12l-384 335.87712a29.60896 29.60896 0 0 0-11.26912 23.04c0 9.216 3.58912 17.92 10.24 24.064l384 359.936c9.22112 8.704 23.04 11.264 34.82112 6.144 11.776-5.12 19.456-16.384 19.456-29.184v-168.96c100.352-5.12 192-33.792 272.37888-85.504 70.66112-45.568 133.12-109.056 184.83712-188.416 87.552-133.63712 114.68288-265.728 116.224-270.848 3.06176-15.36512-5.64736-30.72512-19.97824-36.35712z m-922.112 390.656l304.12288-266.24v160.256c0 17.92 14.34112 31.744 31.74912 31.744 136.69888 0 247.29088-7.168 343.54688-41.984 50.688-18.432 95.23712-44.032 135.168-77.312-12.288 25.08288-27.136 50.68288-44.032 76.8-106.50112 161.792-252.928 243.712-434.68288 243.712-17.92 0-31.74912 14.336-31.74912 31.744V681.984L81.09056 396.8z"  horiz-adv-x="1338" />

    
    <glyph glyph-name="fangda4" unicode="&#58897;" d="M64.016093-0.00007v255.999859H0.016128v-255.999859c0-35.327981 12.492793-65.541084 37.478379-90.521551 24.985586-24.990706 55.19357-37.478379 90.521551-37.478379h255.999859v63.999965h-255.999859a61.439966 61.439966 0 0 0-45.055976 19.041269 61.491166 61.491166 0 0 0-18.943989 44.958696zM0.021248 767.989267v-255.999859h63.999965v255.999859a61.439966 61.439966 0 0 0 19.046389 45.055975 61.439966 61.439966 0 0 0 44.953576 18.84159h255.999859V895.984077h-255.999859c-35.327981 0-65.535964-12.492793-90.521551-37.47838a123.263932 123.263932 0 0 1-37.478379-90.51643zM960.01048-0.00007a61.465566 61.465566 0 0 0-19.05151-45.061096 61.419486 61.419486 0 0 0-44.948455-18.938869h-255.999859V-128h255.999859c35.322861 0 65.530844 12.487673 90.52155 37.478379 24.985586 24.980466 37.478379 55.18845 37.47838 90.521551v255.999859h-63.999965v-255.999859zM896.010515 895.984077h-255.999859v-63.999965h255.999859a61.429726 61.429726 0 0 0 45.055975-19.04639 61.445086 61.445086 0 0 0 18.94399-44.953575v-255.999859h63.999965v255.999859c0 35.327981-12.492793 65.535964-37.47838 90.52155a123.284412 123.284412 0 0 1-90.52155 37.47838zM520.325602 73.599889C349.169216 73.599889 209.925773 212.843333 209.925773 383.999718s139.243443 310.399829 310.399829 310.39983S830.725431 555.156104 830.725431 383.999718s-139.243443-310.399829-310.399829-310.399829z m0 569.599687C377.40088 643.199576 261.125744 526.92444 261.125744 383.999718s116.275136-259.199857 259.199858-259.199857S779.525459 241.074997 779.525459 383.999718s-116.275136 259.199857-259.199857 259.199858z"  horiz-adv-x="1024" />

    
    <glyph glyph-name="fangda5" unicode="&#58898;" d="M131.950444 56.713257V237.167082h-45.11218v-180.453825c0-24.90797 8.809975-46.20002 26.419711-63.809756 17.609736-17.614843 38.901786-26.419711 63.804648-26.41971h180.453826v45.112179H177.062623a43.329756 43.329756 0 0 0-31.756768 13.426913 43.334863 43.334863 0 0 0-13.355411 31.690374zM870.578753 701.914973l-0.669047-180.453826 45.107072-0.168539 0.669047 180.453826c0.097037 24.90797-8.631222 46.235771-26.174563 63.906793-17.553556 17.681237-38.809855 26.562713-63.717826 26.654643l-180.448718 0.66394-0.163431-45.112179 180.443611-0.66394a43.304219 43.304219 0 0 0 31.710803-13.544379 43.304219 43.304219 0 0 0 13.243052-31.736339zM935.057556-127.994893H86.955731c-47.681117 0-86.470544 37.640299-86.470544 83.911821V812.08818C0.485187 858.354594 39.274613 896 86.955731 896h848.101825c47.681117 0 86.475651-37.645406 86.475651-83.91182v-856.171252c0-46.271521-38.794534-83.91182-86.475651-83.911821zM86.955731 844.927681c-19.51984 0-35.398224-14.734364-35.398225-32.839501v-856.171252c0-18.105137 15.878384-32.839501 35.398225-32.839502h848.101825c19.51984 0 35.403332 14.734364 35.403332 32.839502V812.08818c0 18.105137-15.878384 32.839501-35.403332 32.839501H86.955731zM485.473037 619.356569h51.07232v-490.294265h-51.07232zM265.862065 404.643431h490.299371v-51.072319H265.862065z"  horiz-adv-x="1024" />

    
    <glyph glyph-name="kouzhang" unicode="&#58899;" d="M267.050646 381.370098a249.053157 243.815029 90 1 1 487.630057 0 249.053157 243.815029 90 1 1-487.630057 0ZM510.865674 128.704438c-136.429775 0-247.427531 113.345883-247.427531 252.66566 0 139.327002 110.990531 252.672885 247.427531 252.672885s247.434756-113.345883 247.434756-252.672885c-0.007225-139.327002-111.004981-252.66566-247.434756-252.66566z m0 498.11354c-132.448797 0-240.202526-110.109081-240.202526-245.44788 0-135.331574 107.753729-245.440655 240.202526-245.440655 132.456022 0 240.209751 110.101856 240.209751 245.440655-0.007225 135.338799-107.760954 245.44788-240.209751 245.44788zM327.82739 716.740394L510.865674 886.231793l183.031059-169.491399zM703.108615 713.127891H318.608283L510.865674 891.159246l192.242941-178.031355z m-366.062118 7.225005h347.638354L510.865674 881.311564 337.046497 720.352896zM177.164355 194.394186L12.354759 382.396049l167.020447 185.935511zM180.726282 184.849954L7.528456 382.424949l175.517053 195.400268-2.319227-392.975263zM17.181063 382.367149l156.428589-178.435956 2.095252 354.913935L17.181063 382.367149zM847.493121 568.324335l164.159345-188.587088-167.670698-185.328611zM840.282565 184.929429l3.691978 392.946363 172.518677-198.181895-176.210655-194.764468z m10.729133 373.850674l-3.323502-354.899485 159.130741 175.907204-155.807239 178.992281zM693.896733 49.22938L509.073873-118.246243l-181.239258 171.485501zM509.023298-123.173696l-190.36444 180.126606 384.493107-4.212178-194.128667-175.914428z m-172.005701 172.706526l172.114076-162.851619 175.509828 159.036816-347.623904 3.814803z"  horiz-adv-x="1024" />

    
    <glyph glyph-name="styetm" unicode="&#58900;" d="M511.872-123.03872c-275.456 0-502.8608 224.128-506.88 499.61984C0.91136 656.18432 225.04448 886.92224 504.61184 890.97216l7.552 0.06656c275.46112 0 502.83008-224.16384 506.84416-499.65056 1.98144-135.44448-48.9216-263.49568-143.27808-360.67328-94.3616-97.14176-220.91776-151.7824-356.33664-153.71776l-7.52128-0.03584z m0.29184 980.93056l-7.0656-0.03072C243.83488 854.03136 34.35008 638.3616 38.17472 377.09824c3.75808-257.47968 216.28928-466.95936 473.69728-466.95936l7.0656 0.03072c261.26336 3.81952 470.67648 219.49952 466.88256 480.76288-3.75296 257.47456-216.2432 466.95936-473.65632 466.95936zM614.75328 593.70496h-338.7392V650.77248h338.74432v-57.06752z m-322.1504 16.59392h305.5616v23.87968h-305.5616v-23.87968zM559.30368 525.30688h-229.376V610.36032h229.376v-85.05344z m-212.78208 16.5888h196.19328V593.77152H346.5216v-51.87584zM492.7232 262.9376H364.50304V541.89568h158.77632v-104.76032h-16.59392V525.30688H381.09696v-245.77536h111.62624zM508.27776 188.11904H329.92768v88.48896h178.34496v-88.48896z m-161.75616 16.5888h145.16736v55.31136H346.5216v-55.31136zM508.27776 154.07104H276.01408v48.75776h232.26368v-48.75776z m-215.67488 16.5888h199.08096v15.58016H292.60288v-15.58016zM771.67616 154.07104H491.68384V438.20544h279.99232v-284.1344z m-263.3984 16.5888h246.8096V421.61664H508.27776v-250.9568zM702.17728 376.02816h16.5888V314.88h-16.5888zM649.13408 384.34816h69.632v-16.5888h-69.632zM649.13408 224.18944h61.13792v-16.5888h-61.13792zM718.27456 277.22752l0.65024-69.69856-16.5888-0.128-0.65024 69.66784zM542.2336 277.42208h16.5888v-61.16864h-16.5888zM542.2336 224.512h69.632v-16.5888h-69.632zM550.72256 384.68096h61.13792v-16.5888h-61.13792zM558.66368 384.65024l0.64-69.66784-16.5888-0.16384-0.64 69.70368zM634.09664 242.82112c-25.92256 0-47.02208 21.05856-47.02208 47.01184 0 25.92768 21.0688 47.02208 47.02208 47.02208 25.9584 0 47.02208-21.08928 47.02208-47.02208-0.00512-25.95328-21.10464-47.01184-47.02208-47.01184z m0 77.40928a30.47424 30.47424 0 0 1-30.42816-30.42816 30.43328 30.43328 0 0 1 60.85632 0 30.47424 30.47424 0 0 1-30.42816 30.42816z"  horiz-adv-x="1024" />

    
    <glyph glyph-name="styetm_" unicode="&#58901;" d="M511.21894-126.064764c-277.63421 0-506.829742 225.873858-510.88074 503.529731C-3.777787 659.280153 222.124954 891.840686 503.875152 895.913348l7.618188 0.064989c277.641431 0 506.800857-225.924405 510.844635-503.587499 2.007447-136.506375-49.29798-265.582308-144.420625-363.48505-95.072097-97.931626-222.624394-152.99921-359.123548-154.934446l-7.574862-0.036106z m0.267179 988.63861l-7.091053-0.036105C241.058498 858.68171 29.929986 641.314228 33.786017 377.999323c3.78382-259.5022 217.98127-470.645154 477.440145-470.645154l7.134378 0.036105c263.300463 3.856031 474.349543 221.245177 470.54406 484.55286-3.798262 259.494979-217.959607 470.630712-477.418481 470.630712zM633.637083 518.982737H292.977713v80.80334h340.65937v-80.80334z m-333.438339 7.221031h326.217308v66.361278H300.198744v-66.361278zM640.858115 511.761706H285.756682v95.245402h355.101433v-95.245402z m-333.43834 21.663094h311.775246v51.919214H307.419775v-51.919214zM722.166926 397.106172H381.507556V480.21302h340.652149v-83.106848z m-333.438339 7.221031h326.210087v68.664786H388.728587v-68.664786zM729.387958 389.88514H374.286525V487.434052h355.094212v-97.548912z m-333.438339 21.663094h311.768024v54.222724H395.949619v-54.222724zM625.585633 276.37775H292.977713V359.477378h332.60792V276.37775z m-325.386889 7.221031h318.165858v68.664787H300.198744v-68.664787zM632.806665 269.156719H285.756682V366.698409h347.049983V269.156719z m-325.38689 21.663094h303.723796v54.222723H307.419775v-54.222723zM722.166926 156.797473H381.507556V241.059686h340.652149v-84.262213z m-333.438339 7.221031h326.210087v69.820151H388.728587v-69.820151zM729.387958 149.576441H374.286525V248.280718h355.094212v-98.704277z m-333.438339 21.663094h311.768024v55.378089H395.949619v-55.378089z"  horiz-adv-x="1024" />

    
    <glyph glyph-name="styetm_1" unicode="&#58902;" d="M512.025739-128C229.686232-128 0.005324 101.6707 0.005324 383.979586 0.005324 666.308885 229.681128 896 512.025739 896c282.308885 0 512-229.691115 512-512.020414 0-282.308885-229.691115-511.979586-512-511.979586z m0 1005.759853c-272.265066 0-493.780268-221.49989-493.780268-493.780267 0-272.239549 221.515201-493.749646 493.780268-493.749646s493.764957 221.504994 493.764957 493.749646c0 272.280377-221.49989 493.780268-493.764957 493.780267zM739.940812 93.816311H281.691575a9.109866 9.109866 0 0 0-9.11497 9.120074V382.213752H203.040511c-3.817468 0-7.236857 2.373158-8.553577 5.950758s-0.2858 7.5839 2.602819 10.084648l302.074998 259.899125a9.120073 9.120073 0 0 0 11.860689 0.035724l304.361396-259.924642c2.91924-2.470126 3.95016-6.49684 2.638544-10.079544a9.135384 9.135384 0 0 0-8.553578-5.971173h-60.41602v-279.277367c0-5.042324-4.07775-9.11497-9.11497-9.11497z m-449.134267 18.240147h440.014194V391.333825c0 5.042324 4.07775 9.120073 9.120073 9.120073h44.809314L505.151235 639.234465 227.614184 400.453898H281.691575c5.03722 0 9.11497-4.07775 9.11497-9.120073v-279.277367zM334.130721 151.956141c-2.388469 0-4.73611 0.939056-6.450908 2.669166a9.181316 9.181316 0 0 0-2.454816 8.451506l21.623811 95.610215a9.069038 9.069038 0 0 0 2.459919 4.52176l239.275613 250.692291a9.069038 9.069038 0 0 0 12.789538 0.37256l80.932358-75.236778c1.83218-1.689281 2.883515-4.057335 2.91924-6.552979a9.135384 9.135384 0 0 0-2.740616-6.644844l-257.622934-252.386675a9.135384 9.135384 0 0 0-4.373756-2.383365l-84.356851-18.918921a11.023704 11.023704 0 0 0-2.000598-0.193936z m29.988557 100.397361l-17.918623-79.222663 67.75495 15.193317 202.866769 198.737984-66.785272 60.058771-185.917824-194.767409z m198.528737 207.965232l67.219075-60.47216 33.025178 32.346405L595.560915 494.798429l-32.9129-34.479695zM354.254083 386.061841a9.104763 9.104763 0 0 0-6.272283 15.729192l42.425949 40.323279a9.125177 9.125177 0 0 0 12.891609-0.321525 9.120073 9.120073 0 0 0-0.321525-12.886505l-42.461673-40.328383c-1.735213-1.679073-4.02161-2.516058-6.262077-2.516058zM381.573475 362.228185a9.120073 9.120073 0 0 0-6.160005 15.856781l38.756484 35.331991a9.109866 9.109866 0 1 0 12.289389-13.463208l-38.756485-35.331991a9.012898 9.012898 0 0 0-6.129383-2.393573zM535.68077 206.191743a9.033313 9.033313 0 0 0-6.588705 2.832479 9.069038 9.069038 0 0 0 0.321525 12.886505l38.312474 36.500708a9.094556 9.094556 0 0 0 12.896712-0.326628 9.109866 9.109866 0 0 0-0.321524-12.886506l-38.312474-36.500707c-1.786248-1.668866-4.026714-2.505851-6.308008-2.505851zM561.361916 176.050079a9.120073 9.120073 0 0 0-6.430494 15.586292l39.134148 38.955523a9.120073 9.120073 0 1 0 12.855885-12.937541l-39.113734-38.955523a9.176213 9.176213 0 0 0-6.445805-2.648751zM414.460858 318.56207L322.566039 409.946532a9.11497 9.11497 0 0 0 0.020414 12.952852l92.900222 91.762126c1.735213 1.709695 4.169614 2.740615 6.486633 2.63344 2.424194-0.015311 4.73611-0.995195 6.450908-2.725304l88.092661-89.787046-13.003887-12.789538-81.718307 83.269792L341.964695 416.392337l85.35715-84.902933-12.860987-12.927334zM580.867747 153.660732h-0.122485a9.166005 9.166005 0 0 0-6.415183 2.76103l-87.735412 90.338231 13.075337 12.718088 81.361058-83.790355 83.785251 81.845896-80.049441 79.452323 12.825263 12.927334 86.638145-85.974681c1.74542-1.704591 2.70489-4.057335 2.70489-6.49684s-0.995195-4.776938-2.740615-6.48153l-96.947349-94.706884a9.181316 9.181316 0 0 0-6.379459-2.592612z"  horiz-adv-x="1027" />

    
    <glyph glyph-name="styetm_2" unicode="&#58903;" d="M512.006148-128C229.681108-128 0.003593 101.672404 0.003593 383.997445S229.681108 896 512.006148 896C794.331189 896 1024.003593 666.322485 1024.003593 383.997445 1024.003593 101.672404 794.331189-128 512.006148-128z m0 1005.837575c-272.303511 0-493.835019-221.536619-493.835019-493.83502 0-272.2984 221.536619-493.835019 493.835019-493.835019 272.2984 0 493.835019 221.536619 493.83502 493.835019-0.00511 272.2984-221.536619 493.835019-493.83502 493.83502zM374.121961 118.439686H282.1651A9.076102 9.076102 0 0 0 273.083888 127.520898v229.319786c0 5.01843 4.057672 9.081213 9.081212 9.081212h91.956861c5.01843 0 9.081213-4.062782 9.081213-9.081212V127.520898c0-5.01843-4.062782-9.081213-9.081213-9.081212z m-82.870537 18.162425h73.789325v211.15736H291.251424v-211.15736zM386.611823 347.764581h-121.474635a9.070992 9.070992 0 0 0-9.081213 9.076103V434.038658c0 5.01843 4.062782 9.081213 9.081213 9.081212h121.474635c5.01843 0 9.081213-4.062782 9.081213-9.081212v-77.197974c0-5.01843-4.062782-9.076102-9.081213-9.076103z m-112.388312 18.157315h103.307099V424.957445H274.223511v-59.035549zM443.0615 118.439686c-4.865118 0-8.80525 4.062782-8.80525 9.081212l0.035772 267.918773c-0.930096 13.108222 5.759441 40.868012 37.903971 47.501335l156.925604 0.178864c4.870228 0 8.810361-4.062782 8.810361-9.081212 0-5.01843-3.940132-9.081213-8.810361-9.081213H473.918203c-22.634041-4.844676-22.168993-26.482186-22.031011-28.930076L451.86675 127.520898c0-5.01843-3.940132-9.081213-8.80525-9.081212zM735.137218 386.358458h-66.977138c-1.369592 0-2.698301 0.301515-3.924801 0.889213-4.328524 2.07483-42.30404 21.090695-41.987194 49.065123 0.178865 17.033023 14.370495 32.03721 42.166058 44.613948a9.04544 9.04544 0 0 0 3.740826 0.797226h66.977138c5.01843 0 9.081213-4.062782 9.081213-9.081213v-77.197974a9.070992 9.070992 0 0 0-9.076102-9.086323z m-64.835873 18.167536h55.74955V463.556432h-55.907973c-19.102742-8.92279-29.640424-18.627473-29.727301-27.442945-0.163533-13.143995 20.462114-26.661051 29.885724-31.587493zM773.414248 447.663032h-37.464474a9.070992 9.070992 0 0 0-9.076102 9.081213c0 5.01843 4.057672 9.081213 9.076102 9.081212h37.464474a9.076102 9.076102 0 1 0 0-18.162425zM772.601692 402.251858h-37.464474a9.076102 9.076102 0 1 0 0 18.162425h37.464474a9.076102 9.076102 0 0 0 0-18.162425zM642.8584 108.34661c-66.660292 0-120.902268 54.241976-120.902268 120.902268s54.241976 120.902268 120.902268 120.902269 120.902268-54.241976 120.902269-120.902269-54.241976-120.902268-120.902269-120.902268z m0 223.647222c-56.654094 0-102.739843-46.085749-102.739842-102.739843 0-56.654094 46.085749-102.739843 102.739842-102.739843 56.659204 0 102.739843 46.09086 102.739843 102.739843 0 56.654094-46.080639 102.739843-102.739843 102.739843zM766.918907 519.183331h-235.881562a9.076102 9.076102 0 0 0-9.081213 9.081213V611.140192c0 5.01843 4.062782 9.081213 9.081213 9.081213h235.881562c5.01843 0 9.081213-4.062782 9.081213-9.081213v-82.870538a9.070992 9.070992 0 0 0-9.081213-9.086323z m-226.800349 18.162426h217.719136V602.058979h-217.719136v-64.713222zM362.771723 424.957445H282.1651a9.076102 9.076102 0 0 0-9.081212 9.081213v127.147199c0 41.32795 33.769642 56.638762 51.620332 58.964002l153.859353 0.071546c5.01843 0 9.081213-4.062782 9.081213-9.081213v-82.870538c0-5.01843-4.062782-9.081213-9.081213-9.081212H371.852936V434.043768c0-5.023541-4.062782-9.086323-9.081213-9.086323z m-71.520299 18.162425h62.439086V528.264544c0 5.01843 4.062782 9.081213 9.081213 9.081213h106.715748V602.058979H325.874505c-2.463221-0.424165-34.623082-5.928085-34.623081-40.873122v-118.065987zM531.037345 497.612257H478.568684a9.076102 9.076102 0 0 0-9.081213 9.081213V632.706156c0 5.01843 4.057672 9.081213 9.081213 9.081213h52.473771c5.01843 0 9.081213-4.062782 9.081213-9.081213v-126.012686a9.081213 9.081213 0 0 0-9.086323-9.081213z m-43.387449 18.167536h34.306236V623.630054h-34.306236v-107.850261z"  horiz-adv-x="1025" />

    
    <glyph glyph-name="pianyi" unicode="&#58904;" d="M64-64h896V832H64v-896zM960 896a64 64 0 0 0 64-64v-896a64 64 0 0 0-64-64H64a64 64 0 0 0-64 64V832A64 64 0 0 0 64 896h896zM192 704h128v64H128v-192h64V704z m640-128h64V768H704v-64h128v-128z m64-384h-64v-128H704v-64h192V192zM320 64H192V192h-64v-192h192v64z m128 640h128v64H448v-64z m0-704h128v64H448v-64zM128 320h64V448h-64v-128z m704 0h64V448h-64v-128z"  horiz-adv-x="1024" />

    
    <glyph glyph-name="dengdai" unicode="&#58905;" d="M187.733 708.267c11.378 11.377 28.445 11.377 39.823 0L347.022 588.8c11.378-11.378 11.378-28.444 0-39.822s-28.444-11.378-39.822 0L187.733 662.756c-11.377 11.377-11.377 34.133 0 45.51z m648.534 0c11.377-11.378 11.377-28.445 0-39.823L716.8 548.978c-11.378-11.378-28.444-11.378-39.822 0s-11.378 28.444 0 39.822l119.466 119.467c11.378 5.689 28.445 5.689 39.823 0zM512 839.11c17.067 0 28.444-11.378 28.444-28.444V640c0-17.067-11.377-28.444-28.444-28.444S483.556 622.933 483.556 640V810.667c0 17.066 11.377 28.444 28.444 28.444zM142.222 270.222c17.067 0 28.445-11.378 28.445-28.444V128c0-17.067-11.378-28.444-28.445-28.444S113.778 110.933 113.778 128V241.778c0 17.066 11.378 28.444 28.444 28.444z m682.667 0c17.067 0 28.444-11.378 28.444-28.444V128c0-17.067-11.377-28.444-28.444-28.444S796.444 110.933 796.444 128V241.778c0 17.066 11.378 28.444 28.445 28.444z m-227.556 0c17.067 0 28.445-11.378 28.445-28.444V128c0-17.067-11.378-28.444-28.445-28.444S568.89 110.933 568.89 128V241.778c0 17.066 11.378 28.444 28.444 28.444z m-227.555 0c17.066 0 28.444-11.378 28.444-28.444V128c0-17.067-11.378-28.444-28.444-28.444S341.333 110.933 341.333 128V241.778c0 17.066 11.378 28.444 28.445 28.444zM28.444 42.667h967.112c17.066 0 28.444-11.378 28.444-28.445s-11.378-28.444-28.444-28.444H28.444C11.378-14.222 0-2.844 0 14.222s11.378 28.445 28.444 28.445zM995.556 327.11H28.444C11.378 327.111 0 338.49 0 355.556S11.378 384 28.444 384h967.112c17.066 0 28.444-11.378 28.444-28.444s-11.378-28.445-28.444-28.445z"  horiz-adv-x="1024" />

    
    <glyph glyph-name="caizhishua" unicode="&#58907;" d="M1006.931033 719.644344c22.755956 22.755956 22.755956 56.889889 0 79.644845L927.288189 878.933033C915.908211 890.311011 904.531233 896 887.465267 896c-17.066967 0-28.444944-5.688989-39.822923-17.066967l-62.576877-62.576877c-45.510911-45.511911-102.3998-68.266867-159.289689-68.266867S511.999 770.844244 472.177078 816.356156l-39.820922 39.821922c-11.377978 11.377978-28.444944 17.065967-39.822923 17.065966-17.065967 0-28.443944-5.687989-39.821922-17.065966L233.243544 736.710311c-22.754956-22.754956-22.754956-56.888889 0-79.643844L250.310511 640.0005 17.066967 401.067967c-22.755956-22.755956-22.755956-56.889889 0-79.644845l79.643844-79.643844 5.688989-5.689989 34.132933-34.131933L255.9995 82.490589l119.466767-119.466767 79.643844-79.643844c5.688989-5.689989 22.755956-11.377978 34.132933-11.377978h5.689989c11.376978 0 28.443944 5.688989 34.132934 17.066967L767.9985 128.0015l17.066967-17.066967c11.376978-11.376978 22.754956-17.065967 39.821922-17.065966 17.066967 0 28.443944 5.688989 39.821922 17.065966L984.176078 230.4013c22.754956 22.755956 22.754956 56.888889 0 79.643844l-39.821922 39.822923c-85.333833 85.332833-85.333833 227.554556 0 318.576377l62.576877 51.1999zM56.889889 361.245044L290.132433 594.490589l79.644845-79.644845L136.532733 281.6012 56.889889 361.245044zM199.109611 219.023322l-28.443944 28.444945L403.909211 480.710811l79.644845-79.643844L250.309511 167.823422l-51.1999 51.1999zM312.889389 105.245544L290.132433 128.0015l233.244545 233.243544 79.643844-79.643844-233.243544-233.243544-56.889889 56.887888zM489.243044-71.108111L409.5992 8.534733l233.243544 233.244545 79.644845-79.644845L489.243044-71.108111z m415.289189 375.466267l39.821923-39.822923-119.466767-119.465766-551.820922 551.820922L392.532233 816.356156l39.822923-39.822923c51.1999-51.1999 119.465767-85.332833 193.421622-85.332833 73.954856 0 147.909711 28.443944 199.109611 79.643844l62.578878 68.266867 79.643844-79.643844-62.577878-62.577878c-108.088789-108.088789-108.088789-284.444444 0-392.532233z"  horiz-adv-x="1024" />

    
    <glyph glyph-name="xiangji1" unicode="&#58908;" d="M543.66001 224.42A191.88 191.88 0 1 1 351.78001 416.3a191.88 191.88 0 0 1 191.88-191.88z m0 447.72A255.84 255.84 0 1 0 287.82001 416.3a255.84 255.84 0 0 0 255.84 255.84z m405.507-671.58a95.94 95.94 0 1 1-95.94 95.94 95.94 95.94 0 0 1 95.94-95.94z m182.286 27.502a31.98 31.98 0 1 0-31.98-55.645l-31.34 17.909a158.62 158.62 0 0 0-86.986-51.168v-35.178a31.98 31.98 0 0 0-63.96 0v35.178a158.62 158.62 0 0 0-86.986 51.168l-31.34-17.909a31.98 31.98 0 0 0-31.98 55.645l31.34 17.91a147.748 147.748 0 0 0 0 100.417l-30.7 18.548a31.98 31.98 0 0 0 31.98 55.645l31.34-17.909a160.54 160.54 0 0 0 86.985 50.529V288.38a31.98 31.98 0 0 0 63.96 0v-35.178a160.54 160.54 0 0 0 86.986-50.529l31.34 17.91a31.98 31.98 0 1 0 31.98-55.646l-31.34-17.909a146.468 146.468 0 0 0 0-100.417zM605.06201 0.56a31.98 31.98 0 0 0 0-63.96H93.38201A95.94 95.94 0 0 0 0.00001 32.54v639.6a95.94 95.94 0 0 0 95.94 95.94h145.19a31.98 31.98 0 0 1 23.665 10.234l79.95 86.985A96.58 96.58 0 0 0 415.10001 896h243.687a96.58 96.58 0 0 0 69.717-30.061l83.787-88.265a31.98 31.98 0 0 1 23.026-9.594H990.74001a95.94 95.94 0 0 0 96.58-95.94V416.3a31.98 31.98 0 0 0-63.96 0V672.14a31.98 31.98 0 0 1-31.98 31.98H835.31701a96.58 96.58 0 0 0-67.798 30.061l-85.067 88.265a32.62 32.62 0 0 1-23.665 9.594H415.10101a31.98 31.98 0 0 1-23.666-10.234l-80.59-86.985a96.58 96.58 0 0 0-69.716-30.701H95.94001a31.98 31.98 0 0 1-31.98-31.98v-639.6a31.98 31.98 0 0 1 31.98-31.98z"  horiz-adv-x="1148" />

    
    <glyph glyph-name="zhankaiD" unicode="&#58909;" d="M899.46624-64.62634666999998H152.69376c-46.90432 0-85.05856 40.87296-85.05856 91.11552V761.13749333c0 50.24256 38.15936 91.11552 85.05856 91.11552h746.77248c46.8992 0 85.05344-40.87296 85.05344-91.11552v-734.64832c0-50.24256-38.15424-91.11552-85.05344-91.11552zM152.69376 806.17301333c-21.49376 0-38.97856-20.20352-38.97856-45.03552v-734.64832c0-24.832 17.48992-45.03552 38.97856-45.03552h746.77248c21.48864 0 38.97344 20.20352 38.97344 45.03552V761.13749333c0 24.832-17.4848 45.03552-38.97344 45.03552H152.69376zM501.76 345.17333333h-0.10752a23.04 23.04 0 0 0-22.9376 23.1424l2.02752 461.00992c0.05632 12.7232 10.24 22.89664 23.1424 22.9376a23.03488 23.03488 0 0 0 22.93248-23.1424l-2.02752-461.0048A23.02976 23.02976 0 0 0 501.76 345.17333333zM961.47968 345.17333333H501.76a23.04 23.04 0 0 0 0 46.08h459.71968a23.04 23.04 0 0 0 0-46.08zM182.99392 13.725013330000024a23.04 23.04 0 0 0-16.3584 39.26528l250.4704 252.60032a23.04 23.04 0 0 0 32.72192-32.45056l-250.4704-252.60032a22.97856 22.97856 0 0 0-16.36352-6.81472zM181.07392 13.725013330000024a23.04 23.04 0 0 0-23.04 23.04v177.28a23.04 23.04 0 0 0 46.08 0v-177.28a23.04 23.04 0 0 0-23.04-23.04zM360.27392 13.725013330000024H182.99392a23.04 23.04 0 0 0 0 46.08h177.28a23.04 23.04 0 0 0 0-46.08z"  horiz-adv-x="1024" />

    
    <glyph glyph-name="shouqiD" unicode="&#58910;" d="M899.46624-64.62634666999998H152.69376c-46.90432 0-85.05856 40.87296-85.05856 91.11552V761.13749333c0 50.24256 38.15936 91.11552 85.05856 91.11552h746.77248c46.8992 0 85.05344-40.87296 85.05344-91.11552v-734.64832c0-50.24256-38.15424-91.11552-85.05344-91.11552zM152.69376 806.17301333c-21.49376 0-38.97856-20.20352-38.97856-45.03552v-734.64832c0-24.832 17.48992-45.03552 38.97856-45.03552h746.77248c21.48864 0 38.97344 20.20352 38.97344 45.03552V761.13749333c0 24.832-17.4848 45.03552-38.97344 45.03552H152.69376zM501.76 345.17333333h-0.10752a23.04 23.04 0 0 0-22.9376 23.1424l2.02752 461.00992c0.05632 12.7232 10.24 22.89664 23.1424 22.9376a23.03488 23.03488 0 0 0 22.93248-23.1424l-2.02752-461.0048A23.02976 23.02976 0 0 0 501.76 345.17333333zM961.47968 345.17333333H501.76a23.04 23.04 0 0 0 0 46.08h459.71968a23.04 23.04 0 0 0 0-46.08zM181.07392 13.725013330000024a23.04 23.04 0 0 0-16.3584 39.26528l250.4704 252.5952a23.04 23.04 0 0 0 32.72192-32.45056l-250.4704-252.5952a22.97856 22.97856 0 0 0-16.36352-6.81472zM433.46432 89.04021333000003a23.04 23.04 0 0 0-23.04 23.04v177.28a23.04 23.04 0 0 0 46.08 0v-177.28a23.04 23.04 0 0 0-23.04-23.04zM431.54432 266.32021333H254.26432a23.04 23.04 0 0 0 0 46.08h177.28a23.04 23.04 0 0 0 0-46.08z"  horiz-adv-x="1024" />

    
    <glyph glyph-name="qipudian" unicode="&#58911;" d="M513.808142-46.810475c-242.319839 0-439.454185 194.073859-439.454186 432.618617s197.141564 432.611398 439.454186 432.611398c242.312621 0 439.454185-194.066641 439.454185-432.611398s-197.141564-432.618616-439.454185-432.618617z m0 807.477757c-210.480668 0-381.709146-168.160773-381.709146-374.866359s171.235696-374.873577 381.709146-374.873577 381.709146 168.167991 381.709146 374.873577-171.235696 374.866359-381.709146 374.866359zM513.81536 44.044126000000006c-188.450936 0-341.771233 153.313079-341.771234 341.764016s153.320297 341.764015 341.771234 341.764015c188.443718 0 341.756797-153.313079 341.756797-341.764015-0.007218-188.450936-153.313079-341.764015-341.756797-341.764016z m0 654.655511c-172.527741 0-312.898714-140.363754-312.898714-312.891495s140.363754-312.891495 312.898714-312.891496c172.520523 0 312.884277 140.356536 312.884277 312.891496S686.335883 698.6996369999999 513.81536 698.6996369999999zM513.808142 493.971818a25.263455 25.263455 0 0 0-25.263455 25.263455V870.736545a25.263455 25.263455 0 1 0 50.526909 0v-351.501272a25.263455 25.263455 0 0 0-25.263454-25.263455zM513.808142-124.39093500000001a25.263455 25.263455 0 0 0-25.263455 25.263455V252.366574a25.263455 25.263455 0 1 0 50.526909 0v-351.494054a25.263455 25.263455 0 0 0-25.263454-25.263455zM380.373792 360.537469H28.87252a25.263455 25.263455 0 1 0 0 50.526909h351.501272a25.263455 25.263455 0 1 0 0-50.526909zM998.736545 360.537469H647.242491a25.263455 25.263455 0 1 0 0 50.526909h351.494054a25.263455 25.263455 0 1 0 0-50.526909z"  horiz-adv-x="1024" />

    
    <glyph glyph-name="yaoxian" unicode="&#58912;" d="M655.667 332.8H402.432l-34.1-102.4h253.236l34.1 102.4z m53.965 0l-34.1-102.4H920.27v-51.2H153.6v51.2h160.768l34.1 102.4H153.6V384h766.72v-51.2H709.632zM153.6 742.4v-716.8h716.8V742.4H153.6z m0 51.2h716.8a51.2 51.2 0 0 0 51.2-51.2v-716.8a51.2 51.2 0 0 0-51.2-51.2H153.6a51.2 51.2 0 0 0-51.2 51.2V742.4a51.2 51.2 0 0 0 51.2 51.2z"  horiz-adv-x="1024" />

    
    <glyph glyph-name="qingkong1" unicode="&#58913;" d="M62.578 255.99966666l110.364 111.503 352.54-352.54c-32.085-28.445-68.607-43.407-110.193-43.407-45.511 0-91.022 17.067-119.467 51.2L62.578 255.99966666z m557.51 563.2l352.712-358.4L560.356 48.35666665999997l-353.451 353.45 413.184 417.394z m381.156-847.644H560.868c4.494 3.925 9.386 7.054 13.653 11.378l438.044 438.044c22.756 22.756 22.756 56.889 0 79.645l-352.71 352.71c-11.379 17.067-22.756 22.756-39.823 22.756s-28.444-5.689-39.822-17.066l-563.143-563.2c-22.756-22.756-22.756-56.89 0-79.645L250.31-17.06633334000003C295.822-62.577333339999996 358.4-85.33333333999997 415.29-85.33333333999997c3.925 0 7.68 0.967 11.491 1.138 1.878-0.398 3.641-1.138 5.632-1.138h568.89c15.644 0 28.444 12.8 28.444 28.444s-12.8 28.445-28.445 28.445z"  horiz-adv-x="1029" />

    
    <glyph glyph-name="quanjing" unicode="&#58914;" d="M512.693601-128c-282.707232 0-512.700826 228.642517-512.700826 509.695223C-0.007225 662.755154 229.986368 891.412122 512.693601 891.412122c282.700007 0 512.686376-228.656967 512.686375-509.716899-0.007225-281.052706-229.993593-509.695223-512.686375-509.695223z m0 983.287095C249.912933 855.287095 36.117801 642.835815 36.117801 381.69522300000006c0-261.133366 213.795132-473.570197 476.5758-473.570197s476.561349 212.436831 476.561349 473.570197c-0.007225 261.140591-213.780682 473.591872-476.561349 473.591872zM833.14426 224.42130799999995H600.99039c-16.552487 0-31.912848 7.665731-42.129006 21.024766l-46.175008 60.184294-46.203909-60.205969c-10.237832-13.35181-25.598194-21.00309-42.136231-21.003091H192.221266c-29.593622 0-53.674564 24.760093-53.674565 55.199041v204.178649c0 30.431722 24.080943 55.191815 53.674565 55.191816h640.922994c29.593622 0 53.667339-24.752868 53.66734-55.177366v-204.193099c0-30.438947-24.073718-55.19904-53.66734-55.199041zM512.693601 342.203344a35.402526 35.402526 0 0 0 28.228095-14.023735l46.622959-60.762294c3.345177-4.363903 8.243731-6.863755 13.445735-6.863755h232.15387c9.674282 0 17.542313 8.561631 17.542313 19.074014v204.178649c0 10.505158-7.868031 19.052339-17.542313 19.052339H192.221266c-9.674282 0-17.549538-8.554406-17.549538-19.066789v-204.178649c0-10.512383 7.875256-19.074014 17.549538-19.074014h232.132195c5.216454 0 10.122232 2.507077 13.46741 6.863755l46.622959 60.755069a35.359176 35.359176 0 0 0 28.249771 14.04541z m188.392012-8.02698c-35.937176 0-65.169548 30.135497-65.169547 67.170874s29.232371 67.163649 65.169547 67.163649c35.929951 0 65.162323-30.128272 65.162323-67.163649s-29.239596-67.170874-65.162323-67.170874z m0 98.209496c-16.017837 0-29.044521-13.922585-29.044521-31.038622s13.026685-31.045848 29.044521-31.045848c16.010612 0 29.037296 13.92981 29.037297 31.045848s-13.026685 31.038623-29.037297 31.038622zM324.287138 334.17636400000004c-35.937176 0-65.169548 30.135497-65.169548 67.170874s29.232371 67.163649 65.169548 67.163649c35.922726 0 65.147873-30.128272 65.147872-67.163649s-29.225146-67.170874-65.147872-67.170874z m0 98.209496c-16.017837 0-29.044521-13.922585-29.044522-31.038622s13.026685-31.045848 29.044522-31.045848c16.003387 0 29.022846 13.92981 29.022846 31.045848s-13.01946 31.038623-29.022846 31.038622z"  horiz-adv-x="1024" />

    
    <glyph glyph-name="Arrow_2" unicode="&#60312;" d="M476.97586905-60.81880511999998L564.02118404-60.81952849000004 563.99730575 722.44359277 769.15079227 517.29010626 831.31557794 579.45489193 520.47573402 890.29473585 209.65976768 579.47876951 271.79922691 517.3393102800001 476.9744216 722.51450498Z"  horiz-adv-x="1024" />

    
    <glyph glyph-name="Arrow_3" unicode="&#60313;" d="M172.699806 94.23140699999999L234.249627 32.68056300000001 788.083407 586.548112 788.083407 296.41726900000003 875.99769 296.41726900000003 875.99769 736.0111919999999 436.437535 736.0111919999999 436.437535 648.132726 726.599078 648.132726Z"  horiz-adv-x="1024" />

    
    <glyph glyph-name="Arrow_4" unicode="&#60314;" d="M67.18119488 419.02413095L67.18047151 331.97881596 850.44359277 332.00269425 645.29010626 126.84920772999999 707.45489193 64.68442205999997 1018.29473585 375.52426598 707.47876951 686.34023232 645.33931028 624.20077309 850.51450498 419.0255784Z"  horiz-adv-x="1024" />

    
    <glyph glyph-name="Arrow_5" unicode="&#60315;" d="M222.231407 723.300194L160.680563 661.750373 714.548112 107.91659300000003 424.417269 107.91659300000003 424.417269 20.002309999999966 864.011192 20.002309999999966 864.011192 459.562465 776.132726 459.562465 776.132726 169.40092200000004Z"  horiz-adv-x="1024" />

    
    <glyph glyph-name="Arrow_6" unicode="&#60316;" d="M547.02413095 828.81880512L459.97881596 828.81952849 460.00269425 45.55640722999999 254.84920773 250.70989373999998 192.68442206 188.54510806999997 503.52426598-122.29473585000005 814.34023232 188.52123049 752.20077309 250.66068972000005 547.0255784 45.48549502000003Z"  horiz-adv-x="1024" />

    
    <glyph glyph-name="Arrow_7" unicode="&#60317;" d="M851.300194 673.768593L789.750373 735.319437 235.916593 181.45188800000005 235.916593 471.582731 148.00231 471.582731 148.00231 31.98880799999995 587.562465 31.98880799999995 587.562465 119.86727399999995 297.400922 119.86727399999995Z"  horiz-adv-x="1024" />

    
    <glyph glyph-name="Arrow_8" unicode="&#60318;" d="M956.81880512 348.97586905000003L956.81952849 436.02118404 173.55640723 435.99730575 378.70989374 641.15079227 316.54510807 703.31557794 5.70526415 392.47573402 316.52123049 81.65976767999996 378.66068972 143.79922691000002 173.48549502 348.9744216Z"  horiz-adv-x="1024" />

    


  </font>
</defs>
</svg>
