<svg xmlns="http://www.w3.org/2000/svg" viewBox="0 0 46 46"><defs><style>.cls-1{fill:#666;}.cls-2{fill:#e6e6e6;fill-rule:evenodd;}</style></defs><title>资源 65</title><g id="图层_2" data-name="图层 2"><g id="图层_1-2" data-name="图层 1"><path class="cls-1" d="M9.9,31.5c0-.42.06-10.5,6.94-17.38C20.89,10.06,26.46,8,33.4,8V9c-6.66,0-12,2-15.85,5.83C11,21.42,10.9,31.4,10.9,31.5Z"/><path class="cls-1" d="M36,8H33V35h3V8ZM34,34V9h1V34Z"/><path class="cls-1" d="M10,31v6h0V31h0m1-1H3v2H9v4H3v2h8V30Z"/><path class="cls-1" d="M36,31v6h0V31m7-1H35v8h8V36H37V32h6V30Z"/><path class="cls-2" d="M45,0H0V46H46V0Zm0,45H1V1H45Z"/></g></g></svg>