<svg xmlns="http://www.w3.org/2000/svg" viewBox="0 0 21.99 22.86"><defs><style>.cls-1{fill:#eef3ee;}.cls-2{fill:#d3dfc7;}</style></defs><title>draw_hover</title><g id="图层_2" data-name="图层 2"><g id="图层_1-2" data-name="图层 1"><polygon class="cls-1" points="3.12 19.74 3.12 3.12 11.6 3.12 11.6 0 3.12 0 0 0 0 3.12 0 19.74 0 22.86 3.12 22.86 21.99 22.86 21.99 19.74 3.12 19.74"/><rect class="cls-2" x="13.33" width="8.66" height="3.12"/><polygon class="cls-2" points="9.35 9.18 7.27 9.87 7.27 12.99 21.99 12.99 21.99 9.87 21.99 9.18 9.35 9.18"/><polygon class="cls-2" points="12.12 4.22 10.04 4.91 10.04 8.03 21.99 8.03 21.99 4.91 21.99 4.22 12.12 4.22"/><polygon class="cls-2" points="21.99 15.03 21.99 14.34 19.05 14.34 6.41 14.34 4.33 15.03 4.33 15.03 4.33 18.14 21.99 18.14 21.99 15.03 21.99 15.03"/></g></g></svg>