<svg xmlns="http://www.w3.org/2000/svg" viewBox="0 0 46 46"><defs><style>.cls-1{fill:#e6e6e6;}.cls-1,.cls-3{fill-rule:evenodd;}.cls-2{fill:#666;}.cls-3{fill:#87a965;}</style></defs><title>资源 59</title><g id="图层_2" data-name="图层 2"><g id="图层_1-2" data-name="图层 1"><path class="cls-1" d="M45,0H0V46H46V0Zm0,45H1V1H45Z"/><polygon class="cls-2" points="43 8 42 8 36 8 36 9 42 9 42 41 4 41 4 34 3 34 3 42 4 42 43 42 43 41 43 8 43 8"/><polygon class="cls-3" points="24 14 24 5 7 5 7 32 24 32 34 32 34 14 24 14"/><polygon class="cls-2" points="10 3 6 3 6 4 10 4 10 3 10 3"/><polygon class="cls-2" points="6 5 5 5 5 9 6 9 6 5 6 5"/><polygon class="cls-2" points="6 11 5 11 5 15 6 15 6 13 9 13 9 12 6 12 6 11 6 11"/><polygon class="cls-2" points="16 3 12 3 12 4 16 4 16 3 16 3"/><polygon class="cls-2" points="22 3 18 3 18 4 22 4 22 3 22 3"/><polygon class="cls-2" points="22 6 21 6 21 10 22 10 22 6 22 6"/><polygon class="cls-2" points="22 11 21 11 21 12 18 12 18 13 24 13 24 12 22 12 22 11 22 11"/><polygon class="cls-2" points="30 12 26 12 26 13 30 13 30 12 30 12"/><polygon class="cls-2" points="32 12 31 12 31 16 32 16 32 12 32 12"/><polygon class="cls-2" points="6 17 5 17 5 21 6 21 6 17 6 17"/><polygon class="cls-2" points="6 23 5 23 5 27 6 27 6 23 6 23"/><polygon class="cls-2" points="6 28 5 28 5 29 5 30 8 30 8 29 6 29 6 28 6 28"/><polygon class="cls-2" points="14 29 10 29 10 30 14 30 14 29 14 29"/><polygon class="cls-2" points="20 29 16 29 16 30 20 30 20 29 20 29"/><polygon class="cls-2" points="26 29 22 29 22 30 26 30 26 29 26 29"/><polygon class="cls-2" points="32 18 31 18 31 22 32 22 32 18 32 18"/><polygon class="cls-2" points="32 24 31 24 31 28 32 28 32 24 32 24"/><polygon class="cls-2" points="32 29 28 29 28 30 32 30 32 29 32 29"/></g></g></svg>