<svg xmlns="http://www.w3.org/2000/svg" viewBox="0 0 46 46"><defs><style>.cls-1{fill:#666;}.cls-1,.cls-2{fill-rule:evenodd;}.cls-2{fill:#e6e6e6;}</style></defs><title>资源 79</title><g id="图层_2" data-name="图层 2"><g id="图层_1-2" data-name="图层 1"><polygon class="cls-1" points="8.57 29 9.72 29 4 19.09 4 21.09 8.57 29"/><polygon class="cls-1" points="6.26 17 5.1 17 12.03 29 13.19 29 6.26 17"/><polygon class="cls-1" points="16.65 29 9.72 17 8.57 17 15.49 29 16.65 29"/><polygon class="cls-1" points="20.11 29 13.19 17 12.03 17 18.96 29 20.11 29"/><polygon class="cls-1" points="23.58 29 16.65 17 15.49 17 22.42 29 23.58 29"/><polygon class="cls-1" points="27.04 29 20.11 17 18.96 17 25.89 29 27.04 29"/><polygon class="cls-1" points="30.51 29 23.58 17 22.42 17 29.35 29 30.51 29"/><polygon class="cls-1" points="33.97 29 27.04 17 25.89 17 32.81 29 33.97 29"/><polygon class="cls-1" points="37.43 29 30.51 17 29.35 17 36.28 29 37.43 29"/><polygon class="cls-1" points="39.74 29 40.9 29 33.97 17 32.81 17 39.74 29"/><polygon class="cls-1" points="42 26.91 42 24.91 37.43 17 36.28 17 42 26.91"/><path class="cls-1" d="M41,17H4V29H42V17Zm0,11H5V18H41Z"/><path class="cls-2" d="M45,0H0V46H46V0Zm0,45H1V1H45Z"/></g></g></svg>