<svg xmlns="http://www.w3.org/2000/svg" viewBox="0 0 46 46"><defs><style>.cls-1{fill:#e6e6e6;}.cls-1,.cls-2,.cls-3{fill-rule:evenodd;}.cls-2,.cls-4{fill:#666;}.cls-3{fill:none;stroke:#666;stroke-miterlimit:10;}</style></defs><title>资源 60</title><g id="图层_2" data-name="图层 2"><g id="图层_1-2" data-name="图层 1"><path class="cls-1" d="M45,0H0V46H46V0Zm0,45H1V1H45Z"/><path class="cls-2" d="M5.5,4A1.5,1.5,0,1,1,4,5.5,1.5,1.5,0,0,1,5.5,4Z"/><path class="cls-2" d="M39.6,4a1.5,1.5,0,1,1-1.5,1.5A1.5,1.5,0,0,1,39.6,4Z"/><path class="cls-2" d="M5.5,39A1.5,1.5,0,1,1,4,40.5,1.5,1.5,0,0,1,5.5,39Z"/><path class="cls-2" d="M20.61,39a1.5,1.5,0,1,1-1.5,1.5A1.5,1.5,0,0,1,20.61,39Z"/><polygon class="cls-3" points="24.63 42.27 26.4 35.55 38.42 23.53 43.37 28.48 31.35 40.5 24.63 42.27"/><rect class="cls-4" x="34.28" y="28.62" width="7" height="1" transform="translate(31.66 -18.19) rotate(45)"/><polygon class="cls-2" points="41 6 41 5 6 5 5 5 5 6 5 40 5 41 6 41 22 41 22 40 6 40 6 6 41 6"/><polygon class="cls-2" points="9 9 12 9 12 8 8 8 8 9 8 11 9 11 9 9"/><rect class="cls-4" x="8" y="14" width="1" height="6"/><rect class="cls-4" x="8" y="23" width="1" height="6"/><rect class="cls-4" x="8" y="32" width="1" height="6"/><rect class="cls-4" x="12" y="37" width="6" height="1"/><rect class="cls-4" x="15" y="8" width="6" height="1"/><rect class="cls-4" x="24" y="8" width="6" height="1"/><rect class="cls-4" x="33" y="8" width="6" height="1"/><rect class="cls-4" x="42" y="3" width="1" height="6"/><rect class="cls-4" x="34" y="2" width="6" height="1"/><rect class="cls-4" x="25" y="2" width="6" height="1"/><rect class="cls-4" x="16" y="2" width="6" height="1"/><rect class="cls-4" x="7" y="2" width="6" height="1"/><polygon class="cls-2" points="2 3 2 7 3 7 3 3 4 3 4 2 2 2 2 3"/><rect class="cls-4" x="2" y="10" width="1" height="6"/><rect class="cls-4" x="2" y="19" width="1" height="6"/><rect class="cls-4" x="2" y="28" width="1" height="6"/><rect class="cls-4" x="2" y="37" width="1" height="6"/><rect class="cls-4" x="5" y="43" width="6" height="1"/><rect class="cls-4" x="14" y="43" width="6" height="1"/><rect class="cls-4" x="23" y="43" width="6" height="1"/></g></g></svg>