<svg xmlns="http://www.w3.org/2000/svg" viewBox="0 0 21.74 22.86"><defs><style>.cls-1{fill:#d3dfc7;}.cls-2{fill:#eef3ee;}</style></defs><title>intelligent_hover</title><g id="图层_2" data-name="图层 2"><g id="图层_1-2" data-name="图层 1"><path class="cls-1" d="M10.35,3a8.13,8.13,0,0,0-7.62,8.11h7.62Z"/><path class="cls-1" d="M11.42,8.46l.17-.86.82-.3a8.6,8.6,0,0,1,5.43-.38A8.11,8.11,0,0,0,11.38,3V8.71A1,1,0,0,1,11.42,8.46Z"/><rect class="cls-1" x="2.73" y="11.83" width="7.62" height="8.13"/><path class="cls-1" d="M15,15.84A6.41,6.41,0,0,1,12.69,14a6.35,6.35,0,0,1-1.08-2.16h-.23V20H13.8A6.83,6.83,0,0,1,15,15.84Z"/><path class="cls-1" d="M14,8.61s-1.19,5.71,6.61,5.9C20.61,14.51,20.81,7.19,14,8.61Z"/><path class="cls-1" d="M20.73,15.56s-4.1-.51-4.39,4.28C16.34,19.84,21.13,19.91,20.73,15.56Z"/><path class="cls-2" d="M16.73,20.84a7.68,7.68,0,0,1-1.56-.16l-.52-.13V20a5.65,5.65,0,0,1,1.48-4.15,3.62,3.62,0,0,1,.42-.36,6,6,0,0,1-3.19-2,6.48,6.48,0,0,1-1.11-4.84l.08-.38.37-.13c2.55-.91,4.65-.81,6.24.28,2.66,1.84,2.77,5.79,2.78,6h0l0,1.24A5.14,5.14,0,0,1,20,19.86,5.24,5.24,0,0,1,16.73,20.84Zm-.68-1.41a4.37,4.37,0,0,0,3.08-.65,3.74,3.74,0,0,0,1.23-2.9h-.7a3.82,3.82,0,0,0-2.58,1A4,4,0,0,0,16.05,19.43ZM13.55,9.27a5,5,0,0,0,.9,3.36c.89,1.13,2.4,1.76,4.51,1.87h1.39v-.13c0-.07-.12-3.43-2.19-4.86C17,8.74,15.48,8.66,13.55,9.27Z"/><path class="cls-2" d="M21.74,10.91h0v0A10.87,10.87,0,1,0,0,10.87H0V22.17H0a.69.69,0,0,0,.68.69H21.06a.68.68,0,0,0,.68-.69V10.91ZM20.37,21.48h-19V10.88s0,0,0-.05a.76.76,0,0,1,0-.15V10.6h0a9.38,9.38,0,0,1,9.48-9.23,9.52,9.52,0,0,1,9.51,9.23Z"/></g></g></svg>