<svg xmlns="http://www.w3.org/2000/svg" viewBox="0 0 33.45 22.86"><defs><style>.cls-1{fill:#eef3ee;}.cls-2{fill:#d3dfc7;}.cls-3{fill:#87a965;}</style></defs><title>material_hover</title><g id="图层_2" data-name="图层 2"><g id="图层_1-2" data-name="图层 1"><path class="cls-1" d="M0,6.48s8.92,4.81,5.85,16.38c0,0,8.55-6.14,17.61,0,0,0-5.43-7.13-14.07-5A14,14,0,0,0,0,6.48Z"/><path class="cls-1" d="M14.92,0A10.41,10.41,0,0,0,4.76,8.15l3.48,3.52a16.21,16.21,0,0,1,13.36-.26l3.48-3.26A10.4,10.4,0,0,0,14.92,0Z"/><path class="cls-2" d="M10.2,16.65s8.49-.87,13.52,6.11c0,0-2.52-10.55,3.07-14.21,0,0,3.71.29,4.6-.56,0,0,1.94-1.56,2.06-2.6-.83-.51-3.49-1.22-4.91-.57A6.54,6.54,0,0,0,26.18,8s2.19-1.7,3.25-1.53a16.79,16.79,0,0,0-8.76,9.57,7.15,7.15,0,0,1,.67-3.64,13.49,13.49,0,0,0-12.54.16A8.22,8.22,0,0,1,10.2,16.65Z"/><path class="cls-2" d="M25.83,7.49A7.29,7.29,0,0,1,24.7,5.62a3.46,3.46,0,0,1,1-2.78,12.39,12.39,0,0,1,1.35,1.77,3.36,3.36,0,0,1-1,2.68,3.59,3.59,0,0,0,.15-1.71A3.14,3.14,0,0,0,25.83,7.49Z"/><path class="cls-3" d="M13.9,3.54l-.47,0a.36.36,0,0,0,0,.71h.47a.36.36,0,0,0,.36-.34A.35.35,0,0,0,13.9,3.54Z"/><path class="cls-3" d="M20.47,4a2.31,2.31,0,0,0-1-.48H15.24a.36.36,0,0,0,0,.71h4.12c.16,0,1.38.31,1.45,2.24a.37.37,0,0,0,.36.35,0,0,0,0,0,0,0,.34.34,0,0,0,.34-.36A3.11,3.11,0,0,0,20.47,4Z"/></g></g></svg>