<svg xmlns="http://www.w3.org/2000/svg" viewBox="0 0 46 46"><defs><style>.cls-1,.cls-2{fill:#666;}.cls-1{fill-rule:evenodd;}.cls-3{fill:#f8f8f8;}.cls-4{fill:#ddd;}</style></defs><title>资源 82</title><g id="图层_2" data-name="图层 2"><g id="图层_1-2" data-name="图层 1"><polygon class="cls-1" points="9 19 3 19 3 21 9 21 9 25 3 25 3 27 9 27 11 27 12 27 12 26 11 26 11 25 11 21 11 20 14 20 14 19 11 19 9 19"/><polygon class="cls-1" points="43 21 43 19 37 19 35 19 35 21 35 25 35 26 33 26 33 27 35 27 37 27 43 27 43 25 37 25 37 21 43 21"/><rect class="cls-2" x="29" y="19" width="3" height="1"/><rect class="cls-2" x="15" y="26" width="3" height="1"/><rect class="cls-2" x="21" y="26" width="3" height="1"/><rect class="cls-2" x="27" y="26" width="3" height="1"/><rect class="cls-2" x="17" y="19" width="3" height="1"/><rect class="cls-2" x="23" y="19" width="3" height="1"/><path class="cls-4" d="M46,0H0V46H46V0ZM1,45V1H45V45Z"/></g></g></svg>