<svg xmlns="http://www.w3.org/2000/svg" viewBox="0 0 27.24 22.86"><defs><style>.cls-1{fill:#eef3ee;}.cls-2{fill:#d3dfc7;}.cls-3{fill:#87a965;fill-rule:evenodd;}</style></defs><title>merchant_hover</title><g id="图层_2" data-name="图层 2"><g id="图层_1-2" data-name="图层 1"><path class="cls-1" d="M9.73,17.91V1H0V20.64A73.67,73.67,0,0,1,9.73,17.91Z"/><path class="cls-2" d="M20.19,16.49V0H10.47V17.76A74,74,0,0,1,20.19,16.49Z"/><path class="cls-3" d="M14.12,8.64h-1v-2h-6v2h-2v9h2v-1h2v1h2v-1h2v1h2v-9Zm-6-1h4v1h-4Zm6,8h-1v-1h-2v1h-2v-1h-2v1h-1v-6h8Z"/><path class="cls-1" d="M25.14,16.86c-1.72,0-3.42.06-5.1.17l-1.26.1-.55.05c-.3,0-.61.05-.91.09l-.58.06-1,.11-.46.06L14,17.69l-.59.09-.83.14-.63.1-.83.16-.57.11h0l-.74.16h0l-.33.08-.61.13-.86.19L7.38,19l-1.24.32-.33.08-1.18.33-.48.14-.92.27-.5.15-.94.3-.44.15L0,21.17v1.69H9.73V19.45l.74-.19v2.62h9.72V17.41q3.48-.42,7-.52Q26.19,16.86,25.14,16.86Z"/></g></g></svg>