<svg xmlns="http://www.w3.org/2000/svg" viewBox="0 0 22.67 22.29"><defs><style>.cls-1{fill:#d3dfc7;}.cls-2{fill:#87a965;}</style></defs><title>my</title><g id="图层_2" data-name="图层 2"><g id="图层_1-2" data-name="图层 1"><path class="cls-1" d="M9.31,16.12a6.08,6.08,0,0,0-6,5.59h19a6.07,6.07,0,0,0-5.52-5.59Z"/><path class="cls-2" d="M22.67,22.29H0l0-.62a6.66,6.66,0,0,1,6.61-6.14H16a6.65,6.65,0,0,1,6.6,6.14ZM1.26,21.14H21.4A5.5,5.5,0,0,0,16,16.67H6.65A5.52,5.52,0,0,0,1.26,21.14Z"/><ellipse class="cls-1" cx="12.82" cy="7.45" rx="5.67" ry="6.77"/><path class="cls-2" d="M11.33,14.9a7.45,7.45,0,1,1,7.45-7.45A7.46,7.46,0,0,1,11.33,14.9Zm0-13.76a6.31,6.31,0,1,0,6.31,6.31A6.31,6.31,0,0,0,11.33,1.14Z"/></g></g></svg>