<svg xmlns="http://www.w3.org/2000/svg" viewBox="0 0 46 46"><defs><style>.cls-1{fill:#666;}.cls-2{fill:#e6e6e6;fill-rule:evenodd;}</style></defs><title>资源 66</title><g id="图层_2" data-name="图层 2"><g id="图层_1-2" data-name="图层 1"><path class="cls-1" d="M23.5,23.52h-1a9,9,0,0,0-2.45-6.69A11.08,11.08,0,0,0,13,14h0V13h0a12,12,0,0,1,7.76,3.09A10,10,0,0,1,23.5,23.52Z"/><path class="cls-1" d="M23.73,23.52h-1a10,10,0,0,1,2.74-7.4C28.55,13.05,33,13.06,33.23,13v1h0a12.19,12.19,0,0,0-4.81,1.2C25.31,16.8,23.73,19.58,23.73,23.52Z"/><path class="cls-1" d="M10,26v6h0V26h0m3-13H10V25H3v2H9v4H3v2h8V29h2V13ZM11,28V14h1V28Z"/><path class="cls-1" d="M42,26h0m0,6h0M36,13H33V29h2v4h8V31H37V27h6V25H36V13ZM34,28V14h1V28Z"/><path class="cls-2" d="M45,0H0V46H46V0Zm0,45H1V1H45Z"/></g></g></svg>