<svg xmlns="http://www.w3.org/2000/svg" viewBox="0 0 46 46"><defs><style>.cls-1{fill:#e6e6e6;}.cls-1,.cls-2,.cls-4{fill-rule:evenodd;}.cls-2,.cls-3{fill:#666;}.cls-4{fill:#87a965;}</style></defs><title>资源 57</title><g id="图层_2" data-name="图层 2"><g id="图层_1-2" data-name="图层 1"><path class="cls-1" d="M45,0H0V46H46V0Zm0,45H1V1H45Z"/><path class="cls-2" d="M42,3H3V43H43V3ZM4,42V4H42V42Z"/><rect class="cls-3" x="7" y="7" width="6" height="1"/><rect class="cls-3" x="16" y="7" width="6" height="1"/><rect class="cls-3" x="25" y="7" width="6" height="1"/><polygon class="cls-2" points="34 7 34 8 38 8 38 9 39 9 39 8 39 7 34 7"/><rect class="cls-3" x="7" y="10" width="1" height="6"/><polygon class="cls-2" points="8 21 11 21 11 20 8 20 8 19 7 19 7 25 8 25 8 21"/><rect class="cls-3" x="7" y="28" width="1" height="6"/><polygon class="cls-2" points="8 37 7 37 7 39 8 39 12 39 12 38 8 38 8 37"/><rect class="cls-3" x="38" y="11" width="1" height="6"/><rect class="cls-3" x="35" y="26" width="1" height="6"/><polygon class="cls-2" points="35 38 33 38 33 39 35 39 36 39 36 35 35 35 35 38"/><polygon class="cls-2" points="33 20 33 21 35 21 35 23 36 23 36 21 39 21 39 20 35 20 33 20"/><rect class="cls-3" x="24" y="38" width="6" height="1"/><rect class="cls-3" x="15" y="38" width="6" height="1"/><g id="搜索方案8"><path class="cls-4" d="M29.09,27.52l-2.86-2.86a5.55,5.55,0,1,0-1.89,2.06l2.77,2.78a1.4,1.4,0,0,0,2-2Z"/></g><g id="搜索方案"><path class="cls-3" d="M26.81,25.42l2.39,2a.4.4,0,0,1,0,.54.41.41,0,0,1-.28.12.45.45,0,0,1-.27-.1l-2.09-2.32.27-.27m0-1.36-1.6,1.59,2.75,3.05a1.4,1.4,0,0,0,1,.41,1.42,1.42,0,0,0,1-.41,1.4,1.4,0,0,0,0-2l-3.13-2.67Z"/></g><g id="搜索方案-2" data-name="搜索方案"><path class="cls-3" d="M22.13,16.65a4.58,4.58,0,1,1,0,9.16,4.58,4.58,0,1,1,0-9.16m0-1a5.58,5.58,0,1,0,3.95,1.63,5.56,5.56,0,0,0-3.95-1.63Z"/></g></g></g></svg>