<svg xmlns="http://www.w3.org/2000/svg" viewBox="0 0 46 46"><defs><style>.cls-1{fill:#e6e6e6;}.cls-1,.cls-2,.cls-4{fill-rule:evenodd;}.cls-2{fill:#87a965;}.cls-3,.cls-4{fill:#666;}</style></defs><title>资源 58</title><g id="图层_2" data-name="图层 2"><g id="图层_1-2" data-name="图层 1"><path class="cls-1" d="M45,0H0V46H46V0Zm0,45H1V1H45Z"/><g id="搜索户型8"><path class="cls-2" d="M41.09,39.52l-2.86-2.86a5.55,5.55,0,1,0-1.89,2.06l2.77,2.78a1.4,1.4,0,1,0,2-2Z"/></g><g id="搜索户型"><path class="cls-3" d="M38.81,37.42l2.39,2a.4.4,0,0,1,0,.54.41.41,0,0,1-.28.12.45.45,0,0,1-.27-.1l-2.09-2.32.27-.27m-.05-1.36-1.6,1.59,2.75,3.05a1.4,1.4,0,0,0,1,.41,1.42,1.42,0,0,0,1-.41,1.4,1.4,0,0,0,0-2l-3.13-2.67Z"/></g><g id="搜索户型-2" data-name="搜索户型"><path class="cls-3" d="M34.13,28.65A4.51,4.51,0,0,1,37.37,30a4.59,4.59,0,1,1-3.24-1.34m0-1a5.58,5.58,0,1,0,3.95,1.63,5.56,5.56,0,0,0-3.95-1.63Z"/></g><polygon class="cls-4" points="42 3 3 3 3 4 3 43 4 43 28 43 28 42 4 42 4 4 42 4 42 28 43 28 43 3 42 3"/><rect class="cls-3" x="11" y="11" width="4" height="1"/><rect class="cls-3" x="17" y="11" width="4" height="1"/><rect class="cls-3" x="23" y="11" width="4" height="1"/><rect class="cls-3" x="29" y="11" width="4" height="1"/><rect class="cls-3" x="32" y="13" width="1" height="4"/><polygon class="cls-4" points="32 20 30 20 30 21 32 21 33 21 33 19 32 19 32 20"/><rect class="cls-3" x="24" y="24" width="1" height="4"/><polygon class="cls-4" points="24 32 21 32 21 33 24 33 25 33 25 32 25 30 24 30 24 32"/><rect class="cls-3" x="16" y="32" width="3" height="1"/><polygon class="cls-4" points="12 31 11 31 11 32 11 33 13 33 13 32 12 32 12 31"/><rect class="cls-3" x="11" y="25" width="1" height="4"/><polygon class="cls-4" points="12 19 11 19 11 23 12 23 12 21 14 21 14 20 12 20 12 19"/><rect class="cls-3" x="11" y="13" width="1" height="4"/><polygon class="cls-4" points="24 20 22 20 22 21 24 21 24 22 25 22 25 21 28 21 28 20 25 20 24 20"/></g></g></svg>