<svg xmlns="http://www.w3.org/2000/svg" viewBox="0 0 19.93 22.83"><defs><style>.cls-1{fill:#87a965;}.cls-2{fill:#d3dfc7;}.cls-3{fill:#eef3ee;}</style></defs><title>system</title><g id="图层_2" data-name="图层 2"><g id="图层_1-2" data-name="图层 1"><path class="cls-1" d="M19.92,16.88s0-.05,0-.08V10.23a.69.69,0,1,0-1.38,0V16.4l-8.58,5-8.59-5v-10L10,1.48l2.94,1.7A.69.69,0,1,0,13.6,2L10.31.08l-.08,0L10.1,0H9.84L9.7.05l-.08,0L.34,5.44l-.05,0-.12.11-.06.1A.75.75,0,0,0,0,5.81.68.68,0,0,0,0,6,.24.24,0,0,0,0,6V16.74s0,0,0,.06a.68.68,0,0,0,.33.6l9.28,5.35.08,0,.14,0a.56.56,0,0,0,.13,0,.56.56,0,0,0,.13,0l.13,0s.06,0,.08,0l9.28-5.35a.46.46,0,0,0,.07-.07.34.34,0,0,0,.09-.08.32.32,0,0,0,.08-.12l.06-.11Z"/><polygon class="cls-1" points="10.04 20.66 2.26 16.17 2.26 13.58 10.04 18.07 10.04 20.66"/><polygon class="cls-1" points="10.04 17.55 2.26 13.06 2.26 10.47 10.04 14.96 10.04 17.55"/><polygon class="cls-1" points="10.04 14.44 2.26 9.95 2.26 7.36 10.04 11.85 10.04 14.44"/><path class="cls-2" d="M12.12,3.12s-1.2,5.76,6.68,5.94C18.8,9.06,19,1.68,12.12,3.12Z"/><path class="cls-2" d="M18.91,10.13s-4.14-.52-4.42,4.31C14.49,14.44,19.32,14.51,18.91,10.13Z"/><path class="cls-1" d="M14.88,15.46a7.22,7.22,0,0,1-1.57-.17l-.53-.13v-.55a5.72,5.72,0,0,1,1.49-4.18,5,5,0,0,1,.42-.37A6.06,6.06,0,0,1,11.48,8a6.51,6.51,0,0,1-1.12-4.88l.08-.39.37-.13c2.58-.91,4.7-.82,6.3.29,2.68,1.85,2.8,5.83,2.8,6h0l0,1.24a5.22,5.22,0,0,1-1.79,4.32A5.29,5.29,0,0,1,14.88,15.46ZM14.19,14a4.43,4.43,0,0,0,3.11-.67,3.74,3.74,0,0,0,1.24-2.92h-.71a3.78,3.78,0,0,0-2.59,1A4,4,0,0,0,14.19,14ZM11.67,3.78a5,5,0,0,0,.91,3.39c.89,1.14,2.42,1.77,4.55,1.88l.68,0h.72V8.93c0-.07-.12-3.46-2.21-4.9C15.18,3.25,13.62,3.16,11.67,3.78Z"/><polygon class="cls-3" points="6.47 11.33 5.14 10.57 5.14 10.13 6.47 10.89 6.47 11.33"/><polygon class="cls-3" points="6.47 17.55 5.14 16.79 5.14 16.35 6.47 17.11 6.47 17.55"/><polygon class="cls-3" points="6.47 14.44 5.14 13.68 5.14 13.24 6.47 14 6.47 14.44"/></g></g></svg>