<svg xmlns="http://www.w3.org/2000/svg" viewBox="0 0 46 46"><defs><style>.cls-1,.cls-3{fill:#e6e6e6;}.cls-2{fill:#666;}.cls-3{fill-rule:evenodd;}</style></defs><title>资源 67</title><g id="图层_2" data-name="图层 2"><g id="图层_1-2" data-name="图层 1"><rect class="cls-1" x="11" y="19" width="24" height="1"/><rect class="cls-1" x="11" y="27" width="24" height="1"/><path class="cls-2" d="M10,20v0m1-1H3v2H9v5H3v2h8V19Z"/><path class="cls-2" d="M36,20v7h0V20m7-1H35v9h8V26H37V21h6V19Z"/><polygon class="cls-2" points="27 21 26 21 10 21 10 22 26 22 26 23 10 23 10 24 26 24 27 24 27 23 27 22 27 21 27 21"/><polygon class="cls-2" points="36 23 20 23 19 23 19 24 19 26 20 26 37 26 37 25 20 25 20 24 36 24 36 23 36 23"/><path class="cls-3" d="M45,0H0V46H46V0Zm0,45H1V1H45Z"/></g></g></svg>