<svg xmlns="http://www.w3.org/2000/svg" viewBox="0 0 46 46"><defs><style>.cls-1,.cls-2{fill:#666;}.cls-1{fill-rule:evenodd;}.cls-3{fill:#f8f8f8;}.cls-4{fill:#ddd;}</style></defs><title>资源 76</title><g id="图层_2" data-name="图层 2"><g id="图层_1-2" data-name="图层 1"><polygon class="cls-1" points="10 10 22 10 22 11 23 11 23 9 22 9 9 9 9 10 9 37 10 37 37 37 37 36 37 24 38 24 38 23 36 23 36 24 36 36 10 36 10 10"/><polygon class="cls-1" points="13 13 22 13 22 14 23 14 23 12 22 12 12 12 12 13 12 34 13 34 33 34 34 34 34 24 35 24 35 23 33 23 33 24 33 33 13 33 13 13"/><rect class="cls-2" x="22" y="15" width="1" height="2"/><rect class="cls-2" x="22" y="18" width="1" height="2"/><rect class="cls-2" x="27" y="23" width="2" height="1"/><rect class="cls-2" x="30" y="23" width="2" height="1"/><polygon class="cls-1" points="39 23 39 24 39 39 7 39 7 7 22 7 22 8 23 8 23 6 22 6 6 6 6 7 6 40 7 40 39 40 40 40 40 24 40 23 39 23"/><rect class="cls-2" x="22" y="21" width="1" height="3"/><rect class="cls-2" x="24" y="23" width="2" height="1"/><path class="cls-4" d="M46,0H0V46H46V0ZM1,45V1H45V45Z"/></g></g></svg>