<svg xmlns="http://www.w3.org/2000/svg" viewBox="0 0 46 46"><defs><style>.cls-1{fill:#e6e6e6;fill-rule:evenodd;}.cls-2{fill:#666;}.cls-3{fill:none;stroke:#666;stroke-miterlimit:10;}</style></defs><title>资源 56</title><g id="图层_2" data-name="图层 2"><g id="图层_1-2" data-name="图层 1"><path class="cls-1" d="M45,0H0V46H46V0Zm0,45H1V1H45Z"/><path class="cls-2" d="M10,26v6h0V26h0M13,9H10V25H3v2H9v4H3v2h8V29h2V9ZM11,28V10h1V28Z"/><path class="cls-2" d="M42,26h0m0,6h0M36,17.14H33V29h2v4h8V31H37V27h6V25H36V17.14ZM34,28V18.14h1V28Z"/><path class="cls-3" d="M13,9.53c8.28,0,13.47,6.28,13.47,14.56"/><path class="cls-3" d="M26.46,24.09A6.17,6.17,0,0,1,33,17.64"/></g></g></svg>